<svg width="628" height="628" viewBox="0 0 628 628" fill="none" xmlns="http://www.w3.org/2000/svg">
<g clip-path="url(#clip0_10_238)">
<rect width="628" height="628" rx="16" fill="#FFE99D"/>
<g clip-path="url(#clip1_10_238)">
<rect x="85" y="88" width="1059" height="685" rx="50" fill="#F3F3F3"/>
<rect x="85" y="88" width="315" height="1117" fill="white"/>
<path d="M202.191 391.777H197.797V389.246H202.191C202.91 389.246 203.492 389.129 203.938 388.895C204.391 388.652 204.723 388.324 204.934 387.91C205.145 387.488 205.25 387.008 205.25 386.469C205.25 385.945 205.145 385.457 204.934 385.004C204.723 384.551 204.391 384.184 203.938 383.902C203.492 383.621 202.91 383.48 202.191 383.48H198.852V398H195.629V380.938H202.191C203.52 380.938 204.652 381.176 205.59 381.652C206.535 382.121 207.254 382.773 207.746 383.609C208.246 384.438 208.496 385.383 208.496 386.445C208.496 387.547 208.246 388.496 207.746 389.293C207.254 390.09 206.535 390.703 205.59 391.133C204.652 391.562 203.52 391.777 202.191 391.777ZM213.887 387.91V398H210.793V385.32H213.723L213.887 387.91ZM217.742 385.238L217.695 388.121C217.523 388.09 217.328 388.066 217.109 388.051C216.898 388.035 216.699 388.027 216.512 388.027C216.035 388.027 215.617 388.094 215.258 388.227C214.898 388.352 214.598 388.535 214.355 388.777C214.121 389.02 213.941 389.316 213.816 389.668C213.691 390.012 213.621 390.402 213.605 390.84L212.938 390.758C212.938 389.953 213.02 389.207 213.184 388.52C213.348 387.832 213.586 387.23 213.898 386.715C214.211 386.199 214.602 385.801 215.07 385.52C215.547 385.23 216.094 385.086 216.711 385.086C216.883 385.086 217.066 385.102 217.262 385.133C217.465 385.156 217.625 385.191 217.742 385.238ZM218.562 391.789V391.543C218.562 390.613 218.695 389.758 218.961 388.977C219.227 388.188 219.613 387.504 220.121 386.926C220.629 386.348 221.25 385.898 221.984 385.578C222.719 385.25 223.555 385.086 224.492 385.086C225.445 385.086 226.289 385.25 227.023 385.578C227.766 385.898 228.391 386.348 228.898 386.926C229.406 387.504 229.793 388.188 230.059 388.977C230.324 389.758 230.457 390.613 230.457 391.543V391.789C230.457 392.711 230.324 393.566 230.059 394.355C229.793 395.137 229.406 395.82 228.898 396.406C228.391 396.984 227.77 397.434 227.035 397.754C226.301 398.074 225.461 398.234 224.516 398.234C223.578 398.234 222.738 398.074 221.996 397.754C221.254 397.434 220.629 396.984 220.121 396.406C219.613 395.82 219.227 395.137 218.961 394.355C218.695 393.566 218.562 392.711 218.562 391.789ZM221.656 391.543V391.789C221.656 392.344 221.711 392.863 221.82 393.348C221.93 393.832 222.098 394.258 222.324 394.625C222.551 394.992 222.844 395.281 223.203 395.492C223.57 395.695 224.008 395.797 224.516 395.797C225.016 395.797 225.445 395.695 225.805 395.492C226.164 395.281 226.457 394.992 226.684 394.625C226.918 394.258 227.09 393.832 227.199 393.348C227.309 392.863 227.363 392.344 227.363 391.789V391.543C227.363 390.996 227.309 390.484 227.199 390.008C227.09 389.523 226.918 389.098 226.684 388.73C226.457 388.355 226.16 388.062 225.793 387.852C225.434 387.633 225 387.523 224.492 387.523C223.992 387.523 223.562 387.633 223.203 387.852C222.844 388.062 222.551 388.355 222.324 388.73C222.098 389.098 221.93 389.523 221.82 390.008C221.711 390.484 221.656 390.996 221.656 391.543ZM240.312 395.305V380H243.43V398H240.617L240.312 395.305ZM232.168 391.812V391.566C232.168 390.598 232.277 389.719 232.496 388.93C232.723 388.133 233.051 387.449 233.48 386.879C233.91 386.309 234.43 385.867 235.039 385.555C235.656 385.242 236.355 385.086 237.137 385.086C237.895 385.086 238.555 385.238 239.117 385.543C239.688 385.848 240.172 386.281 240.57 386.844C240.977 387.406 241.301 388.074 241.543 388.848C241.785 389.613 241.961 390.457 242.07 391.379V392.047C241.961 392.945 241.785 393.77 241.543 394.52C241.301 395.27 240.977 395.926 240.57 396.488C240.172 397.043 239.688 397.473 239.117 397.777C238.547 398.082 237.879 398.234 237.113 398.234C236.34 398.234 235.645 398.074 235.027 397.754C234.418 397.434 233.898 396.984 233.469 396.406C233.047 395.828 232.723 395.148 232.496 394.367C232.277 393.586 232.168 392.734 232.168 391.812ZM235.273 391.566V391.812C235.273 392.359 235.32 392.871 235.414 393.348C235.508 393.824 235.66 394.246 235.871 394.613C236.082 394.973 236.352 395.254 236.68 395.457C237.016 395.66 237.422 395.762 237.898 395.762C238.508 395.762 239.008 395.629 239.398 395.363C239.797 395.09 240.105 394.719 240.324 394.25C240.543 393.773 240.684 393.238 240.746 392.645V390.805C240.715 390.336 240.633 389.902 240.5 389.504C240.375 389.105 240.195 388.762 239.961 388.473C239.734 388.184 239.453 387.957 239.117 387.793C238.781 387.629 238.383 387.547 237.922 387.547C237.445 387.547 237.039 387.652 236.703 387.863C236.367 388.066 236.094 388.352 235.883 388.719C235.672 389.086 235.516 389.512 235.414 389.996C235.32 390.48 235.273 391.004 235.273 391.566ZM253.777 394.988V385.32H256.895V398H253.965L253.777 394.988ZM254.176 392.363L255.137 392.34C255.137 393.191 255.043 393.977 254.855 394.695C254.668 395.414 254.375 396.039 253.977 396.57C253.586 397.094 253.09 397.504 252.488 397.801C251.887 398.09 251.176 398.234 250.355 398.234C249.73 398.234 249.16 398.148 248.645 397.977C248.129 397.797 247.684 397.52 247.309 397.145C246.941 396.762 246.656 396.273 246.453 395.68C246.25 395.078 246.148 394.355 246.148 393.512V385.32H249.242V393.535C249.242 393.957 249.289 394.309 249.383 394.59C249.484 394.871 249.621 395.102 249.793 395.281C249.973 395.453 250.18 395.578 250.414 395.656C250.656 395.727 250.914 395.762 251.188 395.762C251.938 395.762 252.527 395.613 252.957 395.316C253.395 395.012 253.707 394.605 253.895 394.098C254.082 393.582 254.176 393.004 254.176 392.363ZM264.84 395.797C265.277 395.797 265.668 395.711 266.012 395.539C266.355 395.367 266.629 395.125 266.832 394.812C267.043 394.5 267.156 394.137 267.172 393.723H270.09C270.074 394.582 269.832 395.352 269.363 396.031C268.895 396.711 268.27 397.25 267.488 397.648C266.715 398.039 265.848 398.234 264.887 398.234C263.91 398.234 263.059 398.07 262.332 397.742C261.605 397.414 261 396.957 260.516 396.371C260.039 395.785 259.68 395.105 259.438 394.332C259.203 393.559 259.086 392.73 259.086 391.848V391.473C259.086 390.59 259.203 389.762 259.438 388.988C259.68 388.215 260.039 387.535 260.516 386.949C261 386.363 261.605 385.906 262.332 385.578C263.059 385.25 263.906 385.086 264.875 385.086C265.898 385.086 266.797 385.285 267.57 385.684C268.352 386.082 268.961 386.645 269.398 387.371C269.844 388.098 270.074 388.953 270.09 389.938H267.172C267.156 389.484 267.055 389.078 266.867 388.719C266.68 388.359 266.414 388.07 266.07 387.852C265.727 387.633 265.309 387.523 264.816 387.523C264.293 387.523 263.855 387.633 263.504 387.852C263.16 388.07 262.891 388.371 262.695 388.754C262.508 389.129 262.375 389.551 262.297 390.02C262.227 390.48 262.191 390.965 262.191 391.473V391.848C262.191 392.363 262.227 392.855 262.297 393.324C262.375 393.793 262.508 394.215 262.695 394.59C262.891 394.957 263.16 395.25 263.504 395.469C263.855 395.688 264.301 395.797 264.84 395.797ZM278.152 385.32V387.547H270.887V385.32H278.152ZM272.832 382.203H275.938V394.344C275.938 394.719 275.988 395.008 276.09 395.211C276.191 395.414 276.344 395.551 276.547 395.621C276.75 395.691 276.992 395.727 277.273 395.727C277.477 395.727 277.664 395.715 277.836 395.691C278.008 395.668 278.152 395.645 278.27 395.621L278.281 397.941C278.023 398.027 277.73 398.098 277.402 398.152C277.082 398.207 276.719 398.234 276.312 398.234C275.617 398.234 275.008 398.117 274.484 397.883C273.961 397.641 273.555 397.254 273.266 396.723C272.977 396.184 272.832 395.473 272.832 394.59V382.203ZM287.188 394.531C287.188 394.266 287.117 394.027 286.977 393.816C286.836 393.605 286.57 393.414 286.18 393.242C285.797 393.062 285.234 392.895 284.492 392.738C283.836 392.598 283.23 392.422 282.676 392.211C282.121 392 281.645 391.746 281.246 391.449C280.848 391.145 280.535 390.789 280.309 390.383C280.09 389.969 279.98 389.492 279.98 388.953C279.98 388.43 280.094 387.938 280.32 387.477C280.547 387.008 280.875 386.598 281.305 386.246C281.734 385.887 282.258 385.605 282.875 385.402C283.492 385.191 284.188 385.086 284.961 385.086C286.039 385.086 286.965 385.262 287.738 385.613C288.52 385.965 289.117 386.449 289.531 387.066C289.945 387.676 290.152 388.363 290.152 389.129H287.059C287.059 388.793 286.98 388.488 286.824 388.215C286.676 387.941 286.445 387.723 286.133 387.559C285.82 387.387 285.426 387.301 284.949 387.301C284.52 387.301 284.156 387.371 283.859 387.512C283.57 387.652 283.352 387.836 283.203 388.062C283.055 388.289 282.98 388.539 282.98 388.812C282.98 389.016 283.02 389.199 283.098 389.363C283.184 389.52 283.32 389.664 283.508 389.797C283.695 389.93 283.949 390.051 284.27 390.16C284.598 390.27 285 390.375 285.477 390.477C286.422 390.664 287.246 390.914 287.949 391.227C288.66 391.531 289.215 391.938 289.613 392.445C290.012 392.953 290.211 393.602 290.211 394.391C290.211 394.953 290.09 395.469 289.848 395.938C289.605 396.398 289.254 396.801 288.793 397.145C288.332 397.488 287.781 397.758 287.141 397.953C286.5 398.141 285.777 398.234 284.973 398.234C283.809 398.234 282.824 398.027 282.02 397.613C281.215 397.191 280.605 396.66 280.191 396.02C279.777 395.371 279.57 394.699 279.57 394.004H282.535C282.559 394.496 282.691 394.891 282.934 395.188C283.176 395.484 283.48 395.699 283.848 395.832C284.223 395.957 284.617 396.02 285.031 396.02C285.5 396.02 285.895 395.957 286.215 395.832C286.535 395.699 286.777 395.523 286.941 395.305C287.105 395.078 287.188 394.82 287.188 394.531Z" fill="#CDCDCD"/>
<path d="M209.445 548.035V548.914C209.445 550.203 209.273 551.363 208.93 552.395C208.586 553.418 208.098 554.289 207.465 555.008C206.832 555.727 206.078 556.277 205.203 556.66C204.328 557.043 203.355 557.234 202.285 557.234C201.23 557.234 200.262 557.043 199.379 556.66C198.504 556.277 197.746 555.727 197.105 555.008C196.465 554.289 195.969 553.418 195.617 552.395C195.266 551.363 195.09 550.203 195.09 548.914V548.035C195.09 546.738 195.266 545.578 195.617 544.555C195.969 543.531 196.461 542.66 197.094 541.941C197.727 541.215 198.48 540.66 199.355 540.277C200.238 539.895 201.207 539.703 202.262 539.703C203.332 539.703 204.305 539.895 205.18 540.277C206.055 540.66 206.809 541.215 207.441 541.941C208.082 542.66 208.574 543.531 208.918 544.555C209.27 545.578 209.445 546.738 209.445 548.035ZM206.188 548.914V548.012C206.188 547.082 206.102 546.266 205.93 545.562C205.758 544.852 205.504 544.254 205.168 543.77C204.832 543.285 204.418 542.922 203.926 542.68C203.434 542.43 202.879 542.305 202.262 542.305C201.637 542.305 201.082 542.43 200.598 542.68C200.121 542.922 199.715 543.285 199.379 543.77C199.043 544.254 198.785 544.852 198.605 545.562C198.434 546.266 198.348 547.082 198.348 548.012V548.914C198.348 549.836 198.434 550.652 198.605 551.363C198.785 552.074 199.043 552.676 199.379 553.168C199.723 553.652 200.137 554.02 200.621 554.27C201.105 554.52 201.66 554.645 202.285 554.645C202.91 554.645 203.465 554.52 203.949 554.27C204.434 554.02 204.84 553.652 205.168 553.168C205.504 552.676 205.758 552.074 205.93 551.363C206.102 550.652 206.188 549.836 206.188 548.914ZM215.035 546.91V557H211.941V544.32H214.871L215.035 546.91ZM218.891 544.238L218.844 547.121C218.672 547.09 218.477 547.066 218.258 547.051C218.047 547.035 217.848 547.027 217.66 547.027C217.184 547.027 216.766 547.094 216.406 547.227C216.047 547.352 215.746 547.535 215.504 547.777C215.27 548.02 215.09 548.316 214.965 548.668C214.84 549.012 214.77 549.402 214.754 549.84L214.086 549.758C214.086 548.953 214.168 548.207 214.332 547.52C214.496 546.832 214.734 546.23 215.047 545.715C215.359 545.199 215.75 544.801 216.219 544.52C216.695 544.23 217.242 544.086 217.859 544.086C218.031 544.086 218.215 544.102 218.41 544.133C218.613 544.156 218.773 544.191 218.891 544.238ZM227.961 554.305V539H231.078V557H228.266L227.961 554.305ZM219.816 550.812V550.566C219.816 549.598 219.926 548.719 220.145 547.93C220.371 547.133 220.699 546.449 221.129 545.879C221.559 545.309 222.078 544.867 222.688 544.555C223.305 544.242 224.004 544.086 224.785 544.086C225.543 544.086 226.203 544.238 226.766 544.543C227.336 544.848 227.82 545.281 228.219 545.844C228.625 546.406 228.949 547.074 229.191 547.848C229.434 548.613 229.609 549.457 229.719 550.379V551.047C229.609 551.945 229.434 552.77 229.191 553.52C228.949 554.27 228.625 554.926 228.219 555.488C227.82 556.043 227.336 556.473 226.766 556.777C226.195 557.082 225.527 557.234 224.762 557.234C223.988 557.234 223.293 557.074 222.676 556.754C222.066 556.434 221.547 555.984 221.117 555.406C220.695 554.828 220.371 554.148 220.145 553.367C219.926 552.586 219.816 551.734 219.816 550.812ZM222.922 550.566V550.812C222.922 551.359 222.969 551.871 223.062 552.348C223.156 552.824 223.309 553.246 223.52 553.613C223.73 553.973 224 554.254 224.328 554.457C224.664 554.66 225.07 554.762 225.547 554.762C226.156 554.762 226.656 554.629 227.047 554.363C227.445 554.09 227.754 553.719 227.973 553.25C228.191 552.773 228.332 552.238 228.395 551.645V549.805C228.363 549.336 228.281 548.902 228.148 548.504C228.023 548.105 227.844 547.762 227.609 547.473C227.383 547.184 227.102 546.957 226.766 546.793C226.43 546.629 226.031 546.547 225.57 546.547C225.094 546.547 224.688 546.652 224.352 546.863C224.016 547.066 223.742 547.352 223.531 547.719C223.32 548.086 223.164 548.512 223.062 548.996C222.969 549.48 222.922 550.004 222.922 550.566ZM239.574 557.234C238.613 557.234 237.75 557.078 236.984 556.766C236.219 556.453 235.566 556.02 235.027 555.465C234.496 554.902 234.086 554.25 233.797 553.508C233.516 552.758 233.375 551.953 233.375 551.094V550.625C233.375 549.648 233.516 548.762 233.797 547.965C234.078 547.16 234.477 546.469 234.992 545.891C235.508 545.312 236.125 544.867 236.844 544.555C237.562 544.242 238.355 544.086 239.223 544.086C240.121 544.086 240.914 544.238 241.602 544.543C242.289 544.84 242.863 545.262 243.324 545.809C243.785 546.355 244.133 547.012 244.367 547.777C244.602 548.535 244.719 549.375 244.719 550.297V551.598H234.781V549.465H241.672V549.23C241.656 548.738 241.562 548.289 241.391 547.883C241.219 547.469 240.953 547.141 240.594 546.898C240.234 546.648 239.77 546.523 239.199 546.523C238.738 546.523 238.336 546.625 237.992 546.828C237.656 547.023 237.375 547.305 237.148 547.672C236.93 548.031 236.766 548.461 236.656 548.961C236.547 549.461 236.492 550.016 236.492 550.625V551.094C236.492 551.625 236.562 552.117 236.703 552.57C236.852 553.023 237.066 553.418 237.348 553.754C237.637 554.082 237.98 554.34 238.379 554.527C238.785 554.707 239.246 554.797 239.762 554.797C240.41 554.797 240.996 554.672 241.52 554.422C242.051 554.164 242.512 553.785 242.902 553.285L244.461 554.902C244.195 555.293 243.836 555.668 243.383 556.027C242.938 556.387 242.398 556.68 241.766 556.906C241.133 557.125 240.402 557.234 239.574 557.234ZM249.887 546.91V557H246.793V544.32H249.723L249.887 546.91ZM253.742 544.238L253.695 547.121C253.523 547.09 253.328 547.066 253.109 547.051C252.898 547.035 252.699 547.027 252.512 547.027C252.035 547.027 251.617 547.094 251.258 547.227C250.898 547.352 250.598 547.535 250.355 547.777C250.121 548.02 249.941 548.316 249.816 548.668C249.691 549.012 249.621 549.402 249.605 549.84L248.938 549.758C248.938 548.953 249.02 548.207 249.184 547.52C249.348 546.832 249.586 546.23 249.898 545.715C250.211 545.199 250.602 544.801 251.07 544.52C251.547 544.23 252.094 544.086 252.711 544.086C252.883 544.086 253.066 544.102 253.262 544.133C253.465 544.156 253.625 544.191 253.742 544.238ZM262.414 553.531C262.414 553.266 262.344 553.027 262.203 552.816C262.062 552.605 261.797 552.414 261.406 552.242C261.023 552.062 260.461 551.895 259.719 551.738C259.062 551.598 258.457 551.422 257.902 551.211C257.348 551 256.871 550.746 256.473 550.449C256.074 550.145 255.762 549.789 255.535 549.383C255.316 548.969 255.207 548.492 255.207 547.953C255.207 547.43 255.32 546.938 255.547 546.477C255.773 546.008 256.102 545.598 256.531 545.246C256.961 544.887 257.484 544.605 258.102 544.402C258.719 544.191 259.414 544.086 260.188 544.086C261.266 544.086 262.191 544.262 262.965 544.613C263.746 544.965 264.344 545.449 264.758 546.066C265.172 546.676 265.379 547.363 265.379 548.129H262.285C262.285 547.793 262.207 547.488 262.051 547.215C261.902 546.941 261.672 546.723 261.359 546.559C261.047 546.387 260.652 546.301 260.176 546.301C259.746 546.301 259.383 546.371 259.086 546.512C258.797 546.652 258.578 546.836 258.43 547.062C258.281 547.289 258.207 547.539 258.207 547.812C258.207 548.016 258.246 548.199 258.324 548.363C258.41 548.52 258.547 548.664 258.734 548.797C258.922 548.93 259.176 549.051 259.496 549.16C259.824 549.27 260.227 549.375 260.703 549.477C261.648 549.664 262.473 549.914 263.176 550.227C263.887 550.531 264.441 550.938 264.84 551.445C265.238 551.953 265.438 552.602 265.438 553.391C265.438 553.953 265.316 554.469 265.074 554.938C264.832 555.398 264.48 555.801 264.02 556.145C263.559 556.488 263.008 556.758 262.367 556.953C261.727 557.141 261.004 557.234 260.199 557.234C259.035 557.234 258.051 557.027 257.246 556.613C256.441 556.191 255.832 555.66 255.418 555.02C255.004 554.371 254.797 553.699 254.797 553.004H257.762C257.785 553.496 257.918 553.891 258.16 554.188C258.402 554.484 258.707 554.699 259.074 554.832C259.449 554.957 259.844 555.02 260.258 555.02C260.727 555.02 261.121 554.957 261.441 554.832C261.762 554.699 262.004 554.523 262.168 554.305C262.332 554.078 262.414 553.82 262.414 553.531Z" fill="#CDCDCD"/>
<path d="M148 148C148 145.239 150.239 143 153 143H190V186H153C150.239 186 148 183.761 148 181V148Z" fill="url(#paint0_linear_10_238)"/>
<rect x="160" y="156" width="18" height="17" fill="white"/>
<path d="M164.5 390.25H155.75C155.418 390.25 155.101 390.382 154.866 390.616C154.632 390.851 154.5 391.168 154.5 391.5V400.25C154.5 400.582 154.632 400.899 154.866 401.134C155.101 401.368 155.418 401.5 155.75 401.5H164.5C164.832 401.5 165.149 401.368 165.384 401.134C165.618 400.899 165.75 400.582 165.75 400.25V391.5C165.75 391.168 165.618 390.851 165.384 390.616C165.149 390.382 164.832 390.25 164.5 390.25ZM163.25 399H157V392.75H163.25V399ZM178.25 376.5H169.5C169.168 376.5 168.851 376.632 168.616 376.866C168.382 377.101 168.25 377.418 168.25 377.75V386.5C168.25 386.832 168.382 387.149 168.616 387.384C168.851 387.618 169.168 387.75 169.5 387.75H178.25C178.582 387.75 178.899 387.618 179.134 387.384C179.368 387.149 179.5 386.832 179.5 386.5V377.75C179.5 377.418 179.368 377.101 179.134 376.866C178.899 376.632 178.582 376.5 178.25 376.5V376.5ZM177 385.25H170.75V379H177V385.25ZM178.25 390.25H169.5C169.168 390.25 168.851 390.382 168.616 390.616C168.382 390.851 168.25 391.168 168.25 391.5V400.25C168.25 400.582 168.382 400.899 168.616 401.134C168.851 401.368 169.168 401.5 169.5 401.5H178.25C178.582 401.5 178.899 401.368 179.134 401.134C179.368 400.899 179.5 400.582 179.5 400.25V391.5C179.5 391.168 179.368 390.851 179.134 390.616C178.899 390.382 178.582 390.25 178.25 390.25ZM177 399H170.75V392.75H177V399ZM164.5 376.5H155.75C155.418 376.5 155.101 376.632 154.866 376.866C154.632 377.101 154.5 377.418 154.5 377.75V386.5C154.5 386.832 154.632 387.149 154.866 387.384C155.101 387.618 155.418 387.75 155.75 387.75H164.5C164.832 387.75 165.149 387.618 165.384 387.384C165.618 387.149 165.75 386.832 165.75 386.5V377.75C165.75 377.418 165.618 377.101 165.384 376.866C165.149 376.632 164.832 376.5 164.5 376.5V376.5ZM163.25 385.25H157V379H163.25V385.25Z" fill="#CDCDCD"/>
<path d="M200.727 318H197.047L197.07 315.469H200.727C201.719 315.469 202.551 315.25 203.223 314.812C203.895 314.367 204.402 313.73 204.746 312.902C205.09 312.066 205.262 311.066 205.262 309.902V309.023C205.262 308.125 205.164 307.332 204.969 306.645C204.773 305.957 204.484 305.379 204.102 304.91C203.727 304.441 203.262 304.086 202.707 303.844C202.152 303.602 201.516 303.48 200.797 303.48H196.977V300.938H200.797C201.938 300.938 202.977 301.129 203.914 301.512C204.859 301.895 205.676 302.445 206.363 303.164C207.059 303.875 207.59 304.727 207.957 305.719C208.332 306.711 208.52 307.82 208.52 309.047V309.902C208.52 311.121 208.332 312.23 207.957 313.23C207.59 314.223 207.059 315.074 206.363 315.785C205.676 316.496 204.855 317.043 203.902 317.426C202.949 317.809 201.891 318 200.727 318ZM198.852 300.938V318H195.629V300.938H198.852ZM218.012 315.305V309.457C218.012 309.027 217.938 308.656 217.789 308.344C217.641 308.031 217.414 307.789 217.109 307.617C216.805 307.445 216.418 307.359 215.949 307.359C215.535 307.359 215.172 307.43 214.859 307.57C214.555 307.711 214.32 307.91 214.156 308.168C213.992 308.418 213.91 308.707 213.91 309.035H210.805C210.805 308.512 210.93 308.016 211.18 307.547C211.43 307.07 211.785 306.648 212.246 306.281C212.715 305.906 213.273 305.613 213.922 305.402C214.578 305.191 215.312 305.086 216.125 305.086C217.086 305.086 217.941 305.25 218.691 305.578C219.449 305.898 220.043 306.383 220.473 307.031C220.91 307.68 221.129 308.496 221.129 309.48V315.012C221.129 315.645 221.168 316.188 221.246 316.641C221.332 317.086 221.457 317.473 221.621 317.801V318H218.469C218.32 317.68 218.207 317.273 218.129 316.781C218.051 316.281 218.012 315.789 218.012 315.305ZM218.445 310.277L218.469 312.117H216.512C216.027 312.117 215.602 312.168 215.234 312.27C214.867 312.363 214.566 312.504 214.332 312.691C214.098 312.871 213.922 313.09 213.805 313.348C213.688 313.598 213.629 313.883 213.629 314.203C213.629 314.516 213.699 314.797 213.84 315.047C213.988 315.297 214.199 315.496 214.473 315.645C214.754 315.785 215.082 315.855 215.457 315.855C216.004 315.855 216.48 315.746 216.887 315.527C217.293 315.301 217.609 315.027 217.836 314.707C218.062 314.387 218.184 314.082 218.199 313.793L219.09 315.129C218.98 315.449 218.816 315.789 218.598 316.148C218.379 316.508 218.098 316.844 217.754 317.156C217.41 317.469 216.996 317.727 216.512 317.93C216.027 318.133 215.465 318.234 214.824 318.234C214.004 318.234 213.27 318.07 212.621 317.742C211.973 317.414 211.461 316.965 211.086 316.395C210.711 315.824 210.523 315.176 210.523 314.449C210.523 313.777 210.648 313.184 210.898 312.668C211.148 312.152 211.52 311.719 212.012 311.367C212.504 311.008 213.113 310.738 213.84 310.559C214.574 310.371 215.414 310.277 216.359 310.277H218.445ZM230.891 314.531C230.891 314.266 230.82 314.027 230.68 313.816C230.539 313.605 230.273 313.414 229.883 313.242C229.5 313.062 228.938 312.895 228.195 312.738C227.539 312.598 226.934 312.422 226.379 312.211C225.824 312 225.348 311.746 224.949 311.449C224.551 311.145 224.238 310.789 224.012 310.383C223.793 309.969 223.684 309.492 223.684 308.953C223.684 308.43 223.797 307.938 224.023 307.477C224.25 307.008 224.578 306.598 225.008 306.246C225.438 305.887 225.961 305.605 226.578 305.402C227.195 305.191 227.891 305.086 228.664 305.086C229.742 305.086 230.668 305.262 231.441 305.613C232.223 305.965 232.82 306.449 233.234 307.066C233.648 307.676 233.855 308.363 233.855 309.129H230.762C230.762 308.793 230.684 308.488 230.527 308.215C230.379 307.941 230.148 307.723 229.836 307.559C229.523 307.387 229.129 307.301 228.652 307.301C228.223 307.301 227.859 307.371 227.562 307.512C227.273 307.652 227.055 307.836 226.906 308.062C226.758 308.289 226.684 308.539 226.684 308.812C226.684 309.016 226.723 309.199 226.801 309.363C226.887 309.52 227.023 309.664 227.211 309.797C227.398 309.93 227.652 310.051 227.973 310.16C228.301 310.27 228.703 310.375 229.18 310.477C230.125 310.664 230.949 310.914 231.652 311.227C232.363 311.531 232.918 311.938 233.316 312.445C233.715 312.953 233.914 313.602 233.914 314.391C233.914 314.953 233.793 315.469 233.551 315.938C233.309 316.398 232.957 316.801 232.496 317.145C232.035 317.488 231.484 317.758 230.844 317.953C230.203 318.141 229.48 318.234 228.676 318.234C227.512 318.234 226.527 318.027 225.723 317.613C224.918 317.191 224.309 316.66 223.895 316.02C223.48 315.371 223.273 314.699 223.273 314.004H226.238C226.262 314.496 226.395 314.891 226.637 315.188C226.879 315.484 227.184 315.699 227.551 315.832C227.926 315.957 228.32 316.02 228.734 316.02C229.203 316.02 229.598 315.957 229.918 315.832C230.238 315.699 230.48 315.523 230.645 315.305C230.809 315.078 230.891 314.82 230.891 314.531ZM239.305 300V318H236.199V300H239.305ZM238.812 311.203H237.898C237.898 310.32 238.016 309.508 238.25 308.766C238.484 308.023 238.816 307.379 239.246 306.832C239.676 306.277 240.188 305.848 240.781 305.543C241.383 305.238 242.047 305.086 242.773 305.086C243.398 305.086 243.965 305.176 244.473 305.355C244.988 305.527 245.43 305.805 245.797 306.188C246.164 306.57 246.445 307.07 246.641 307.688C246.844 308.297 246.945 309.039 246.945 309.914V318H243.828V309.891C243.828 309.305 243.742 308.844 243.57 308.508C243.398 308.164 243.152 307.918 242.832 307.77C242.52 307.621 242.133 307.547 241.672 307.547C241.172 307.547 240.742 307.645 240.383 307.84C240.023 308.027 239.727 308.289 239.492 308.625C239.266 308.961 239.094 309.348 238.977 309.785C238.867 310.223 238.812 310.695 238.812 311.203ZM249.664 300H252.77V315.199L252.465 318H249.664V300ZM260.926 311.531V311.777C260.926 312.723 260.82 313.59 260.609 314.379C260.406 315.168 260.098 315.852 259.684 316.43C259.27 317 258.754 317.445 258.137 317.766C257.527 318.078 256.812 318.234 255.992 318.234C255.211 318.234 254.531 318.082 253.953 317.777C253.383 317.473 252.902 317.043 252.512 316.488C252.121 315.926 251.809 315.266 251.574 314.508C251.34 313.742 251.164 312.906 251.047 312V311.332C251.164 310.418 251.34 309.582 251.574 308.824C251.809 308.066 252.121 307.406 252.512 306.844C252.902 306.281 253.383 305.848 253.953 305.543C254.523 305.238 255.195 305.086 255.969 305.086C256.797 305.086 257.52 305.246 258.137 305.566C258.762 305.879 259.277 306.324 259.684 306.902C260.098 307.473 260.406 308.152 260.609 308.941C260.82 309.723 260.926 310.586 260.926 311.531ZM257.82 311.777V311.531C257.82 310.992 257.777 310.484 257.691 310.008C257.605 309.523 257.465 309.098 257.27 308.73C257.074 308.363 256.809 308.074 256.473 307.863C256.137 307.652 255.715 307.547 255.207 307.547C254.723 307.547 254.309 307.629 253.965 307.793C253.629 307.957 253.348 308.184 253.121 308.473C252.902 308.762 252.73 309.102 252.605 309.492C252.488 309.883 252.41 310.305 252.371 310.758V312.586C252.426 313.188 252.555 313.73 252.758 314.215C252.961 314.691 253.262 315.07 253.66 315.352C254.066 315.633 254.59 315.773 255.23 315.773C255.73 315.773 256.148 315.676 256.484 315.48C256.82 315.277 257.086 314.996 257.281 314.637C257.477 314.27 257.613 313.844 257.691 313.359C257.777 312.875 257.82 312.348 257.82 311.777ZM262.625 311.789V311.543C262.625 310.613 262.758 309.758 263.023 308.977C263.289 308.188 263.676 307.504 264.184 306.926C264.691 306.348 265.312 305.898 266.047 305.578C266.781 305.25 267.617 305.086 268.555 305.086C269.508 305.086 270.352 305.25 271.086 305.578C271.828 305.898 272.453 306.348 272.961 306.926C273.469 307.504 273.855 308.188 274.121 308.977C274.387 309.758 274.52 310.613 274.52 311.543V311.789C274.52 312.711 274.387 313.566 274.121 314.355C273.855 315.137 273.469 315.82 272.961 316.406C272.453 316.984 271.832 317.434 271.098 317.754C270.363 318.074 269.523 318.234 268.578 318.234C267.641 318.234 266.801 318.074 266.059 317.754C265.316 317.434 264.691 316.984 264.184 316.406C263.676 315.82 263.289 315.137 263.023 314.355C262.758 313.566 262.625 312.711 262.625 311.789ZM265.719 311.543V311.789C265.719 312.344 265.773 312.863 265.883 313.348C265.992 313.832 266.16 314.258 266.387 314.625C266.613 314.992 266.906 315.281 267.266 315.492C267.633 315.695 268.07 315.797 268.578 315.797C269.078 315.797 269.508 315.695 269.867 315.492C270.227 315.281 270.52 314.992 270.746 314.625C270.98 314.258 271.152 313.832 271.262 313.348C271.371 312.863 271.426 312.344 271.426 311.789V311.543C271.426 310.996 271.371 310.484 271.262 310.008C271.152 309.523 270.98 309.098 270.746 308.73C270.52 308.355 270.223 308.062 269.855 307.852C269.496 307.633 269.062 307.523 268.555 307.523C268.055 307.523 267.625 307.633 267.266 307.852C266.906 308.062 266.613 308.355 266.387 308.73C266.16 309.098 265.992 309.523 265.883 310.008C265.773 310.484 265.719 310.996 265.719 311.543ZM283.754 315.305V309.457C283.754 309.027 283.68 308.656 283.531 308.344C283.383 308.031 283.156 307.789 282.852 307.617C282.547 307.445 282.16 307.359 281.691 307.359C281.277 307.359 280.914 307.43 280.602 307.57C280.297 307.711 280.062 307.91 279.898 308.168C279.734 308.418 279.652 308.707 279.652 309.035H276.547C276.547 308.512 276.672 308.016 276.922 307.547C277.172 307.07 277.527 306.648 277.988 306.281C278.457 305.906 279.016 305.613 279.664 305.402C280.32 305.191 281.055 305.086 281.867 305.086C282.828 305.086 283.684 305.25 284.434 305.578C285.191 305.898 285.785 306.383 286.215 307.031C286.652 307.68 286.871 308.496 286.871 309.48V315.012C286.871 315.645 286.91 316.188 286.988 316.641C287.074 317.086 287.199 317.473 287.363 317.801V318H284.211C284.062 317.68 283.949 317.273 283.871 316.781C283.793 316.281 283.754 315.789 283.754 315.305ZM284.188 310.277L284.211 312.117H282.254C281.77 312.117 281.344 312.168 280.977 312.27C280.609 312.363 280.309 312.504 280.074 312.691C279.84 312.871 279.664 313.09 279.547 313.348C279.43 313.598 279.371 313.883 279.371 314.203C279.371 314.516 279.441 314.797 279.582 315.047C279.73 315.297 279.941 315.496 280.215 315.645C280.496 315.785 280.824 315.855 281.199 315.855C281.746 315.855 282.223 315.746 282.629 315.527C283.035 315.301 283.352 315.027 283.578 314.707C283.805 314.387 283.926 314.082 283.941 313.793L284.832 315.129C284.723 315.449 284.559 315.789 284.34 316.148C284.121 316.508 283.84 316.844 283.496 317.156C283.152 317.469 282.738 317.727 282.254 317.93C281.77 318.133 281.207 318.234 280.566 318.234C279.746 318.234 279.012 318.07 278.363 317.742C277.715 317.414 277.203 316.965 276.828 316.395C276.453 315.824 276.266 315.176 276.266 314.449C276.266 313.777 276.391 313.184 276.641 312.668C276.891 312.152 277.262 311.719 277.754 311.367C278.246 311.008 278.855 310.738 279.582 310.559C280.316 310.371 281.156 310.277 282.102 310.277H284.188ZM292.754 307.91V318H289.66V305.32H292.59L292.754 307.91ZM296.609 305.238L296.562 308.121C296.391 308.09 296.195 308.066 295.977 308.051C295.766 308.035 295.566 308.027 295.379 308.027C294.902 308.027 294.484 308.094 294.125 308.227C293.766 308.352 293.465 308.535 293.223 308.777C292.988 309.02 292.809 309.316 292.684 309.668C292.559 310.012 292.488 310.402 292.473 310.84L291.805 310.758C291.805 309.953 291.887 309.207 292.051 308.52C292.215 307.832 292.453 307.23 292.766 306.715C293.078 306.199 293.469 305.801 293.938 305.52C294.414 305.23 294.961 305.086 295.578 305.086C295.75 305.086 295.934 305.102 296.129 305.133C296.332 305.156 296.492 305.191 296.609 305.238ZM305.68 315.305V300H308.797V318H305.984L305.68 315.305ZM297.535 311.812V311.566C297.535 310.598 297.645 309.719 297.863 308.93C298.09 308.133 298.418 307.449 298.848 306.879C299.277 306.309 299.797 305.867 300.406 305.555C301.023 305.242 301.723 305.086 302.504 305.086C303.262 305.086 303.922 305.238 304.484 305.543C305.055 305.848 305.539 306.281 305.938 306.844C306.344 307.406 306.668 308.074 306.91 308.848C307.152 309.613 307.328 310.457 307.438 311.379V312.047C307.328 312.945 307.152 313.77 306.91 314.52C306.668 315.27 306.344 315.926 305.938 316.488C305.539 317.043 305.055 317.473 304.484 317.777C303.914 318.082 303.246 318.234 302.48 318.234C301.707 318.234 301.012 318.074 300.395 317.754C299.785 317.434 299.266 316.984 298.836 316.406C298.414 315.828 298.09 315.148 297.863 314.367C297.645 313.586 297.535 312.734 297.535 311.812ZM300.641 311.566V311.812C300.641 312.359 300.688 312.871 300.781 313.348C300.875 313.824 301.027 314.246 301.238 314.613C301.449 314.973 301.719 315.254 302.047 315.457C302.383 315.66 302.789 315.762 303.266 315.762C303.875 315.762 304.375 315.629 304.766 315.363C305.164 315.09 305.473 314.719 305.691 314.25C305.91 313.773 306.051 313.238 306.113 312.645V310.805C306.082 310.336 306 309.902 305.867 309.504C305.742 309.105 305.562 308.762 305.328 308.473C305.102 308.184 304.82 307.957 304.484 307.793C304.148 307.629 303.75 307.547 303.289 307.547C302.812 307.547 302.406 307.652 302.07 307.863C301.734 308.066 301.461 308.352 301.25 308.719C301.039 309.086 300.883 309.512 300.781 309.996C300.688 310.48 300.641 311.004 300.641 311.566Z" fill="#FFC42A"/>
<path d="M178.25 554H160.75C160.418 554 160.101 553.868 159.866 553.634C159.632 553.399 159.5 553.082 159.5 552.75C159.5 552.418 159.632 552.101 159.866 551.866C160.101 551.632 160.418 551.5 160.75 551.5H173.8C174.636 551.5 175.448 551.221 176.107 550.707C176.766 550.193 177.234 549.473 177.438 548.663L179.5 540.55C179.547 540.366 179.551 540.173 179.512 539.986C179.473 539.8 179.392 539.625 179.275 539.475C179.153 539.321 178.997 539.198 178.819 539.115C178.641 539.033 178.446 538.993 178.25 539H160.45C160.192 538.271 159.715 537.639 159.084 537.191C158.453 536.744 157.699 536.502 156.925 536.5H155.75C155.418 536.5 155.101 536.632 154.866 536.866C154.632 537.101 154.5 537.418 154.5 537.75C154.5 538.082 154.632 538.399 154.866 538.634C155.101 538.868 155.418 539 155.75 539H156.925C157.211 538.992 157.49 539.081 157.718 539.254C157.945 539.427 158.107 539.673 158.175 539.95L158.25 540.55L160.412 549C159.418 549.045 158.482 549.483 157.81 550.218C157.139 550.953 156.786 551.924 156.831 552.919C156.876 553.913 157.314 554.849 158.049 555.521C158.784 556.193 159.755 556.545 160.75 556.5H160.975C160.769 557.066 160.703 557.674 160.782 558.271C160.861 558.869 161.083 559.438 161.429 559.932C161.775 560.425 162.235 560.828 162.769 561.106C163.304 561.384 163.897 561.529 164.5 561.529C165.103 561.529 165.696 561.384 166.231 561.106C166.765 560.828 167.225 560.425 167.571 559.932C167.917 559.438 168.139 558.869 168.218 558.271C168.297 557.674 168.231 557.066 168.025 556.5H170.975C170.769 557.066 170.703 557.674 170.782 558.271C170.861 558.869 171.083 559.438 171.429 559.932C171.775 560.425 172.235 560.828 172.769 561.106C173.304 561.384 173.897 561.529 174.5 561.529C175.103 561.529 175.696 561.384 176.231 561.106C176.765 560.828 177.225 560.425 177.571 559.932C177.917 559.438 178.139 558.869 178.218 558.271C178.297 557.674 178.231 557.066 178.025 556.5H178.25C178.582 556.5 178.899 556.368 179.134 556.134C179.368 555.899 179.5 555.582 179.5 555.25C179.5 554.918 179.368 554.601 179.134 554.366C178.899 554.132 178.582 554 178.25 554ZM176.65 541.5L175.013 548.05C174.944 548.327 174.783 548.573 174.555 548.746C174.328 548.919 174.048 549.008 173.763 549H162.975L161.1 541.5H176.65ZM164.5 559C164.253 559 164.011 558.927 163.806 558.789C163.6 558.652 163.44 558.457 163.345 558.228C163.251 558 163.226 557.749 163.274 557.506C163.322 557.264 163.441 557.041 163.616 556.866C163.791 556.691 164.014 556.572 164.256 556.524C164.499 556.476 164.75 556.501 164.978 556.595C165.207 556.69 165.402 556.85 165.539 557.056C165.677 557.261 165.75 557.503 165.75 557.75C165.75 558.082 165.618 558.399 165.384 558.634C165.149 558.868 164.832 559 164.5 559ZM174.5 559C174.253 559 174.011 558.927 173.806 558.789C173.6 558.652 173.44 558.457 173.345 558.228C173.251 558 173.226 557.749 173.274 557.506C173.322 557.264 173.441 557.041 173.616 556.866C173.791 556.691 174.014 556.572 174.256 556.524C174.499 556.476 174.75 556.501 174.978 556.595C175.207 556.69 175.402 556.85 175.539 557.056C175.677 557.261 175.75 557.503 175.75 557.75C175.75 558.082 175.618 558.399 175.384 558.634C175.149 558.868 174.832 559 174.5 559Z" fill="#CDCDCD"/>
<path d="M167 311.744C166.781 311.744 166.565 311.686 166.375 311.577L155.125 305.08C154.527 304.735 154.322 303.97 154.668 303.372C154.777 303.182 154.935 303.025 155.125 302.915L166.375 296.423C166.762 296.201 167.238 296.201 167.625 296.423L178.875 302.915C179.473 303.26 179.678 304.025 179.332 304.623C179.223 304.813 179.065 304.971 178.875 305.08L167.625 311.577C167.435 311.686 167.219 311.744 167 311.744Z" fill="#FFC029"/>
<path d="M178.875 307.915L176.42 306.498L167.625 311.577C167.238 311.8 166.762 311.8 166.375 311.577L157.58 306.498L155.125 307.915C154.527 308.26 154.322 309.025 154.668 309.623C154.777 309.813 154.935 309.971 155.125 310.08L166.375 316.577C166.762 316.8 167.238 316.8 167.625 316.577L178.875 310.08C179.473 309.735 179.678 308.97 179.332 308.372C179.223 308.182 179.065 308.024 178.875 307.915Z" fill="#FD9F24"/>
<path d="M178.875 312.915L176.42 311.498L167.625 316.577C167.238 316.8 166.762 316.8 166.375 316.577L157.58 311.498L155.125 312.915C154.527 313.26 154.322 314.025 154.668 314.623C154.777 314.813 154.935 314.971 155.125 315.08L166.375 321.577C166.762 321.8 167.238 321.8 167.625 321.577L178.875 315.08C179.473 314.735 179.678 313.97 179.332 313.372C179.223 313.182 179.065 313.024 178.875 312.915Z" fill="#FB7C1F"/>
<path d="M168.375 469.275C169.042 468.698 169.577 467.984 169.944 467.181C170.31 466.379 170.5 465.507 170.5 464.625C170.5 462.967 169.842 461.378 168.669 460.206C167.497 459.033 165.908 458.375 164.25 458.375C162.592 458.375 161.003 459.033 159.831 460.206C158.658 461.378 158 462.967 158 464.625C158 465.507 158.19 466.379 158.556 467.181C158.923 467.984 159.458 468.698 160.125 469.275C158.375 470.067 156.891 471.347 155.849 472.961C154.807 474.574 154.252 476.454 154.25 478.375C154.25 478.707 154.382 479.024 154.616 479.259C154.851 479.493 155.168 479.625 155.5 479.625C155.832 479.625 156.149 479.493 156.384 479.259C156.618 479.024 156.75 478.707 156.75 478.375C156.75 476.386 157.54 474.478 158.947 473.072C160.353 471.665 162.261 470.875 164.25 470.875C166.239 470.875 168.147 471.665 169.553 473.072C170.96 474.478 171.75 476.386 171.75 478.375C171.75 478.707 171.882 479.024 172.116 479.259C172.351 479.493 172.668 479.625 173 479.625C173.332 479.625 173.649 479.493 173.884 479.259C174.118 479.024 174.25 478.707 174.25 478.375C174.248 476.454 173.693 474.574 172.651 472.961C171.609 471.347 170.125 470.067 168.375 469.275V469.275ZM164.25 468.375C163.508 468.375 162.783 468.155 162.167 467.743C161.55 467.331 161.069 466.745 160.785 466.06C160.502 465.375 160.427 464.621 160.572 463.893C160.717 463.166 161.074 462.498 161.598 461.973C162.123 461.449 162.791 461.092 163.518 460.947C164.246 460.802 165 460.877 165.685 461.16C166.37 461.444 166.956 461.925 167.368 462.542C167.78 463.158 168 463.883 168 464.625C168 465.62 167.605 466.573 166.902 467.277C166.198 467.98 165.245 468.375 164.25 468.375ZM176.425 468.775C177.225 467.874 177.748 466.761 177.93 465.57C178.112 464.38 177.946 463.161 177.452 462.063C176.958 460.964 176.157 460.031 175.146 459.377C174.134 458.723 172.955 458.375 171.75 458.375C171.418 458.375 171.101 458.507 170.866 458.741C170.632 458.976 170.5 459.293 170.5 459.625C170.5 459.957 170.632 460.274 170.866 460.509C171.101 460.743 171.418 460.875 171.75 460.875C172.745 460.875 173.698 461.27 174.402 461.973C175.105 462.677 175.5 463.63 175.5 464.625C175.498 465.282 175.324 465.926 174.995 466.494C174.666 467.062 174.194 467.534 173.625 467.863C173.44 467.969 173.285 468.122 173.175 468.306C173.066 468.49 173.006 468.699 173 468.913C172.995 469.125 173.044 469.335 173.142 469.523C173.24 469.711 173.385 469.871 173.563 469.987L174.05 470.313L174.212 470.4C175.719 471.115 176.99 472.245 177.876 473.658C178.762 475.071 179.226 476.707 179.212 478.375C179.212 478.707 179.344 479.024 179.579 479.259C179.813 479.493 180.131 479.625 180.462 479.625C180.794 479.625 181.112 479.493 181.346 479.259C181.581 479.024 181.712 478.707 181.712 478.375C181.723 476.457 181.242 474.568 180.317 472.888C179.391 471.207 178.052 469.792 176.425 468.775V468.775Z" fill="#CDCDCD"/>
<path d="M205.613 472.387H208.836C208.75 473.527 208.434 474.539 207.887 475.422C207.34 476.297 206.578 476.984 205.602 477.484C204.625 477.984 203.441 478.234 202.051 478.234C200.98 478.234 200.016 478.047 199.156 477.672C198.305 477.289 197.574 476.746 196.965 476.043C196.363 475.332 195.902 474.48 195.582 473.488C195.262 472.488 195.102 471.367 195.102 470.125V468.824C195.102 467.582 195.266 466.461 195.594 465.461C195.922 464.461 196.391 463.609 197 462.906C197.617 462.195 198.355 461.648 199.215 461.266C200.082 460.883 201.051 460.691 202.121 460.691C203.512 460.691 204.688 460.949 205.648 461.465C206.609 461.973 207.355 462.672 207.887 463.562C208.418 464.453 208.738 465.477 208.848 466.633H205.625C205.562 465.914 205.406 465.305 205.156 464.805C204.914 464.305 204.547 463.926 204.055 463.668C203.57 463.402 202.926 463.27 202.121 463.27C201.496 463.27 200.945 463.387 200.469 463.621C200 463.855 199.609 464.207 199.297 464.676C198.984 465.137 198.75 465.715 198.594 466.41C198.438 467.098 198.359 467.895 198.359 468.801V470.125C198.359 470.992 198.43 471.77 198.57 472.457C198.711 473.145 198.93 473.727 199.227 474.203C199.523 474.68 199.906 475.043 200.375 475.293C200.844 475.543 201.402 475.668 202.051 475.668C202.84 475.668 203.48 475.543 203.973 475.293C204.473 475.043 204.852 474.676 205.109 474.191C205.375 473.707 205.543 473.105 205.613 472.387ZM218.645 474.988V465.32H221.762V478H218.832L218.645 474.988ZM219.043 472.363L220.004 472.34C220.004 473.191 219.91 473.977 219.723 474.695C219.535 475.414 219.242 476.039 218.844 476.57C218.453 477.094 217.957 477.504 217.355 477.801C216.754 478.09 216.043 478.234 215.223 478.234C214.598 478.234 214.027 478.148 213.512 477.977C212.996 477.797 212.551 477.52 212.176 477.145C211.809 476.762 211.523 476.273 211.32 475.68C211.117 475.078 211.016 474.355 211.016 473.512V465.32H214.109V473.535C214.109 473.957 214.156 474.309 214.25 474.59C214.352 474.871 214.488 475.102 214.66 475.281C214.84 475.453 215.047 475.578 215.281 475.656C215.523 475.727 215.781 475.762 216.055 475.762C216.805 475.762 217.395 475.613 217.824 475.316C218.262 475.012 218.574 474.605 218.762 474.098C218.949 473.582 219.043 473.004 219.043 472.363ZM231.477 474.531C231.477 474.266 231.406 474.027 231.266 473.816C231.125 473.605 230.859 473.414 230.469 473.242C230.086 473.062 229.523 472.895 228.781 472.738C228.125 472.598 227.52 472.422 226.965 472.211C226.41 472 225.934 471.746 225.535 471.449C225.137 471.145 224.824 470.789 224.598 470.383C224.379 469.969 224.27 469.492 224.27 468.953C224.27 468.43 224.383 467.938 224.609 467.477C224.836 467.008 225.164 466.598 225.594 466.246C226.023 465.887 226.547 465.605 227.164 465.402C227.781 465.191 228.477 465.086 229.25 465.086C230.328 465.086 231.254 465.262 232.027 465.613C232.809 465.965 233.406 466.449 233.82 467.066C234.234 467.676 234.441 468.363 234.441 469.129H231.348C231.348 468.793 231.27 468.488 231.113 468.215C230.965 467.941 230.734 467.723 230.422 467.559C230.109 467.387 229.715 467.301 229.238 467.301C228.809 467.301 228.445 467.371 228.148 467.512C227.859 467.652 227.641 467.836 227.492 468.062C227.344 468.289 227.27 468.539 227.27 468.812C227.27 469.016 227.309 469.199 227.387 469.363C227.473 469.52 227.609 469.664 227.797 469.797C227.984 469.93 228.238 470.051 228.559 470.16C228.887 470.27 229.289 470.375 229.766 470.477C230.711 470.664 231.535 470.914 232.238 471.227C232.949 471.531 233.504 471.938 233.902 472.445C234.301 472.953 234.5 473.602 234.5 474.391C234.5 474.953 234.379 475.469 234.137 475.938C233.895 476.398 233.543 476.801 233.082 477.145C232.621 477.488 232.07 477.758 231.43 477.953C230.789 478.141 230.066 478.234 229.262 478.234C228.098 478.234 227.113 478.027 226.309 477.613C225.504 477.191 224.895 476.66 224.48 476.02C224.066 475.371 223.859 474.699 223.859 474.004H226.824C226.848 474.496 226.98 474.891 227.223 475.188C227.465 475.484 227.77 475.699 228.137 475.832C228.512 475.957 228.906 476.02 229.32 476.02C229.789 476.02 230.184 475.957 230.504 475.832C230.824 475.699 231.066 475.523 231.23 475.305C231.395 475.078 231.477 474.82 231.477 474.531ZM242.855 465.32V467.547H235.59V465.32H242.855ZM237.535 462.203H240.641V474.344C240.641 474.719 240.691 475.008 240.793 475.211C240.895 475.414 241.047 475.551 241.25 475.621C241.453 475.691 241.695 475.727 241.977 475.727C242.18 475.727 242.367 475.715 242.539 475.691C242.711 475.668 242.855 475.645 242.973 475.621L242.984 477.941C242.727 478.027 242.434 478.098 242.105 478.152C241.785 478.207 241.422 478.234 241.016 478.234C240.32 478.234 239.711 478.117 239.188 477.883C238.664 477.641 238.258 477.254 237.969 476.723C237.68 476.184 237.535 475.473 237.535 474.59V462.203ZM244.062 471.789V471.543C244.062 470.613 244.195 469.758 244.461 468.977C244.727 468.188 245.113 467.504 245.621 466.926C246.129 466.348 246.75 465.898 247.484 465.578C248.219 465.25 249.055 465.086 249.992 465.086C250.945 465.086 251.789 465.25 252.523 465.578C253.266 465.898 253.891 466.348 254.398 466.926C254.906 467.504 255.293 468.188 255.559 468.977C255.824 469.758 255.957 470.613 255.957 471.543V471.789C255.957 472.711 255.824 473.566 255.559 474.355C255.293 475.137 254.906 475.82 254.398 476.406C253.891 476.984 253.27 477.434 252.535 477.754C251.801 478.074 250.961 478.234 250.016 478.234C249.078 478.234 248.238 478.074 247.496 477.754C246.754 477.434 246.129 476.984 245.621 476.406C245.113 475.82 244.727 475.137 244.461 474.355C244.195 473.566 244.062 472.711 244.062 471.789ZM247.156 471.543V471.789C247.156 472.344 247.211 472.863 247.32 473.348C247.43 473.832 247.598 474.258 247.824 474.625C248.051 474.992 248.344 475.281 248.703 475.492C249.07 475.695 249.508 475.797 250.016 475.797C250.516 475.797 250.945 475.695 251.305 475.492C251.664 475.281 251.957 474.992 252.184 474.625C252.418 474.258 252.59 473.832 252.699 473.348C252.809 472.863 252.863 472.344 252.863 471.789V471.543C252.863 470.996 252.809 470.484 252.699 470.008C252.59 469.523 252.418 469.098 252.184 468.73C251.957 468.355 251.66 468.062 251.293 467.852C250.934 467.633 250.5 467.523 249.992 467.523C249.492 467.523 249.062 467.633 248.703 467.852C248.344 468.062 248.051 468.355 247.824 468.73C247.598 469.098 247.43 469.523 247.32 470.008C247.211 470.484 247.156 470.996 247.156 471.543ZM261.289 467.922V478H258.195V465.32H261.113L261.289 467.922ZM260.832 471.203H259.883C259.883 470.32 259.988 469.508 260.199 468.766C260.418 468.023 260.738 467.379 261.16 466.832C261.582 466.277 262.102 465.848 262.719 465.543C263.344 465.238 264.066 465.086 264.887 465.086C265.457 465.086 265.98 465.172 266.457 465.344C266.934 465.508 267.344 465.77 267.688 466.129C268.039 466.48 268.309 466.941 268.496 467.512C268.684 468.074 268.777 468.75 268.777 469.539V478H265.684V469.855C265.684 469.262 265.598 468.797 265.426 468.461C265.262 468.125 265.023 467.891 264.711 467.758C264.398 467.617 264.023 467.547 263.586 467.547C263.102 467.547 262.684 467.645 262.332 467.84C261.988 468.027 261.703 468.289 261.477 468.625C261.258 468.961 261.094 469.348 260.984 469.785C260.883 470.223 260.832 470.695 260.832 471.203ZM268.543 470.629L267.266 470.863C267.273 470.066 267.383 469.32 267.594 468.625C267.805 467.922 268.113 467.309 268.52 466.785C268.934 466.254 269.445 465.84 270.055 465.543C270.672 465.238 271.383 465.086 272.188 465.086C272.812 465.086 273.375 465.176 273.875 465.355C274.383 465.527 274.816 465.805 275.176 466.188C275.535 466.562 275.809 467.051 275.996 467.652C276.191 468.254 276.289 468.988 276.289 469.855V478H273.172V469.844C273.172 469.227 273.086 468.754 272.914 468.426C272.75 468.098 272.512 467.871 272.199 467.746C271.887 467.613 271.52 467.547 271.098 467.547C270.668 467.547 270.293 467.629 269.973 467.793C269.66 467.949 269.395 468.168 269.176 468.449C268.965 468.73 268.805 469.059 268.695 469.434C268.594 469.801 268.543 470.199 268.543 470.629ZM284.762 478.234C283.801 478.234 282.938 478.078 282.172 477.766C281.406 477.453 280.754 477.02 280.215 476.465C279.684 475.902 279.273 475.25 278.984 474.508C278.703 473.758 278.562 472.953 278.562 472.094V471.625C278.562 470.648 278.703 469.762 278.984 468.965C279.266 468.16 279.664 467.469 280.18 466.891C280.695 466.312 281.312 465.867 282.031 465.555C282.75 465.242 283.543 465.086 284.41 465.086C285.309 465.086 286.102 465.238 286.789 465.543C287.477 465.84 288.051 466.262 288.512 466.809C288.973 467.355 289.32 468.012 289.555 468.777C289.789 469.535 289.906 470.375 289.906 471.297V472.598H279.969V470.465H286.859V470.23C286.844 469.738 286.75 469.289 286.578 468.883C286.406 468.469 286.141 468.141 285.781 467.898C285.422 467.648 284.957 467.523 284.387 467.523C283.926 467.523 283.523 467.625 283.18 467.828C282.844 468.023 282.562 468.305 282.336 468.672C282.117 469.031 281.953 469.461 281.844 469.961C281.734 470.461 281.68 471.016 281.68 471.625V472.094C281.68 472.625 281.75 473.117 281.891 473.57C282.039 474.023 282.254 474.418 282.535 474.754C282.824 475.082 283.168 475.34 283.566 475.527C283.973 475.707 284.434 475.797 284.949 475.797C285.598 475.797 286.184 475.672 286.707 475.422C287.238 475.164 287.699 474.785 288.09 474.285L289.648 475.902C289.383 476.293 289.023 476.668 288.57 477.027C288.125 477.387 287.586 477.68 286.953 477.906C286.32 478.125 285.59 478.234 284.762 478.234ZM295.074 467.91V478H291.98V465.32H294.91L295.074 467.91ZM298.93 465.238L298.883 468.121C298.711 468.09 298.516 468.066 298.297 468.051C298.086 468.035 297.887 468.027 297.699 468.027C297.223 468.027 296.805 468.094 296.445 468.227C296.086 468.352 295.785 468.535 295.543 468.777C295.309 469.02 295.129 469.316 295.004 469.668C294.879 470.012 294.809 470.402 294.793 470.84L294.125 470.758C294.125 469.953 294.207 469.207 294.371 468.52C294.535 467.832 294.773 467.23 295.086 466.715C295.398 466.199 295.789 465.801 296.258 465.52C296.734 465.23 297.281 465.086 297.898 465.086C298.07 465.086 298.254 465.102 298.449 465.133C298.652 465.156 298.812 465.191 298.93 465.238ZM307.602 474.531C307.602 474.266 307.531 474.027 307.391 473.816C307.25 473.605 306.984 473.414 306.594 473.242C306.211 473.062 305.648 472.895 304.906 472.738C304.25 472.598 303.645 472.422 303.09 472.211C302.535 472 302.059 471.746 301.66 471.449C301.262 471.145 300.949 470.789 300.723 470.383C300.504 469.969 300.395 469.492 300.395 468.953C300.395 468.43 300.508 467.938 300.734 467.477C300.961 467.008 301.289 466.598 301.719 466.246C302.148 465.887 302.672 465.605 303.289 465.402C303.906 465.191 304.602 465.086 305.375 465.086C306.453 465.086 307.379 465.262 308.152 465.613C308.934 465.965 309.531 466.449 309.945 467.066C310.359 467.676 310.566 468.363 310.566 469.129H307.473C307.473 468.793 307.395 468.488 307.238 468.215C307.09 467.941 306.859 467.723 306.547 467.559C306.234 467.387 305.84 467.301 305.363 467.301C304.934 467.301 304.57 467.371 304.273 467.512C303.984 467.652 303.766 467.836 303.617 468.062C303.469 468.289 303.395 468.539 303.395 468.812C303.395 469.016 303.434 469.199 303.512 469.363C303.598 469.52 303.734 469.664 303.922 469.797C304.109 469.93 304.363 470.051 304.684 470.16C305.012 470.27 305.414 470.375 305.891 470.477C306.836 470.664 307.66 470.914 308.363 471.227C309.074 471.531 309.629 471.938 310.027 472.445C310.426 472.953 310.625 473.602 310.625 474.391C310.625 474.953 310.504 475.469 310.262 475.938C310.02 476.398 309.668 476.801 309.207 477.145C308.746 477.488 308.195 477.758 307.555 477.953C306.914 478.141 306.191 478.234 305.387 478.234C304.223 478.234 303.238 478.027 302.434 477.613C301.629 477.191 301.02 476.66 300.605 476.02C300.191 475.371 299.984 474.699 299.984 474.004H302.949C302.973 474.496 303.105 474.891 303.348 475.188C303.59 475.484 303.895 475.699 304.262 475.832C304.637 475.957 305.031 476.02 305.445 476.02C305.914 476.02 306.309 475.957 306.629 475.832C306.949 475.699 307.191 475.523 307.355 475.305C307.52 475.078 307.602 474.82 307.602 474.531Z" fill="#CDCDCD"/>
<path d="M154.25 626.625V632.875C154.25 633.207 154.382 633.524 154.616 633.759C154.851 633.993 155.168 634.125 155.5 634.125H156.75C156.75 635.12 157.145 636.073 157.848 636.777C158.552 637.48 159.505 637.875 160.5 637.875C161.495 637.875 162.448 637.48 163.152 636.777C163.855 636.073 164.25 635.12 164.25 634.125H171.75C171.75 635.12 172.145 636.073 172.848 636.777C173.552 637.48 174.505 637.875 175.5 637.875C176.495 637.875 177.448 637.48 178.152 636.777C178.855 636.073 179.25 635.12 179.25 634.125H180.5C180.832 634.125 181.149 633.993 181.384 633.759C181.618 633.524 181.75 633.207 181.75 632.875V617.875C181.75 616.88 181.355 615.927 180.652 615.223C179.948 614.52 178.995 614.125 178 614.125H166.75C165.755 614.125 164.802 614.52 164.098 615.223C163.395 615.927 163 616.88 163 617.875V620.375H160.5C159.918 620.375 159.344 620.511 158.823 620.771C158.302 621.031 157.849 621.409 157.5 621.875L154.5 625.875C154.463 625.929 154.434 625.988 154.412 626.05L154.338 626.187C154.282 626.327 154.253 626.475 154.25 626.625V626.625ZM174.25 634.125C174.25 633.878 174.323 633.636 174.461 633.431C174.598 633.225 174.793 633.065 175.022 632.97C175.25 632.876 175.501 632.851 175.744 632.899C175.986 632.947 176.209 633.066 176.384 633.241C176.559 633.416 176.678 633.639 176.726 633.881C176.774 634.124 176.749 634.375 176.655 634.603C176.56 634.832 176.4 635.027 176.194 635.164C175.989 635.302 175.747 635.375 175.5 635.375C175.168 635.375 174.851 635.243 174.616 635.009C174.382 634.774 174.25 634.457 174.25 634.125ZM165.5 617.875C165.5 617.543 165.632 617.226 165.866 616.991C166.101 616.757 166.418 616.625 166.75 616.625H178C178.332 616.625 178.649 616.757 178.884 616.991C179.118 617.226 179.25 617.543 179.25 617.875V631.625H178.275C177.924 631.238 177.495 630.929 177.017 630.718C176.539 630.506 176.023 630.397 175.5 630.397C174.977 630.397 174.461 630.506 173.983 630.718C173.505 630.929 173.076 631.238 172.725 631.625H165.5V617.875ZM163 625.375H158L159.5 623.375C159.616 623.22 159.767 623.094 159.941 623.007C160.115 622.92 160.306 622.875 160.5 622.875H163V625.375ZM159.25 634.125C159.25 633.878 159.323 633.636 159.461 633.431C159.598 633.225 159.793 633.065 160.022 632.97C160.25 632.876 160.501 632.851 160.744 632.899C160.986 632.947 161.209 633.066 161.384 633.241C161.559 633.416 161.678 633.639 161.726 633.881C161.774 634.124 161.749 634.375 161.655 634.603C161.56 634.832 161.4 635.027 161.194 635.164C160.989 635.302 160.747 635.375 160.5 635.375C160.168 635.375 159.851 635.243 159.616 635.009C159.382 634.774 159.25 634.457 159.25 634.125ZM156.75 627.875H163V631.35C162.262 630.691 161.294 630.35 160.306 630.401C159.318 630.453 158.39 630.893 157.725 631.625H156.75V627.875Z" fill="#CDCDCD"/>
<path d="M204.559 629.57C204.559 629.242 204.508 628.949 204.406 628.691C204.312 628.426 204.137 628.188 203.879 627.977C203.629 627.758 203.273 627.547 202.812 627.344C202.359 627.133 201.773 626.914 201.055 626.688C200.258 626.438 199.516 626.156 198.828 625.844C198.141 625.531 197.535 625.168 197.012 624.754C196.496 624.34 196.094 623.863 195.805 623.324C195.516 622.777 195.371 622.145 195.371 621.426C195.371 620.723 195.52 620.082 195.816 619.504C196.121 618.926 196.551 618.43 197.105 618.016C197.66 617.594 198.312 617.27 199.062 617.043C199.82 616.816 200.656 616.703 201.57 616.703C202.836 616.703 203.93 616.934 204.852 617.395C205.781 617.855 206.5 618.48 207.008 619.27C207.516 620.059 207.77 620.945 207.77 621.93H204.559C204.559 621.398 204.445 620.93 204.219 620.523C204 620.117 203.664 619.797 203.211 619.562C202.766 619.328 202.203 619.211 201.523 619.211C200.867 619.211 200.32 619.309 199.883 619.504C199.453 619.699 199.129 619.965 198.91 620.301C198.699 620.637 198.594 621.012 198.594 621.426C198.594 621.738 198.668 622.02 198.816 622.27C198.965 622.512 199.188 622.742 199.484 622.961C199.781 623.172 200.148 623.371 200.586 623.559C201.031 623.738 201.547 623.918 202.133 624.098C203.07 624.379 203.891 624.691 204.594 625.035C205.305 625.379 205.895 625.77 206.363 626.207C206.84 626.645 207.195 627.137 207.43 627.684C207.672 628.23 207.793 628.852 207.793 629.547C207.793 630.281 207.648 630.938 207.359 631.516C207.07 632.094 206.656 632.586 206.117 632.992C205.578 633.398 204.93 633.707 204.172 633.918C203.422 634.129 202.582 634.234 201.652 634.234C200.824 634.234 200.004 634.125 199.191 633.906C198.387 633.68 197.656 633.344 197 632.898C196.344 632.445 195.82 631.875 195.43 631.188C195.039 630.492 194.844 629.68 194.844 628.75H198.078C198.078 629.289 198.164 629.75 198.336 630.133C198.516 630.508 198.766 630.816 199.086 631.059C199.414 631.293 199.797 631.465 200.234 631.574C200.672 631.684 201.145 631.738 201.652 631.738C202.309 631.738 202.848 631.648 203.27 631.469C203.699 631.281 204.02 631.023 204.23 630.695C204.449 630.367 204.559 629.992 204.559 629.57ZM213.078 616V634H209.973V616H213.078ZM212.586 627.203H211.672C211.672 626.32 211.789 625.508 212.023 624.766C212.258 624.023 212.59 623.379 213.02 622.832C213.449 622.277 213.961 621.848 214.555 621.543C215.156 621.238 215.82 621.086 216.547 621.086C217.172 621.086 217.738 621.176 218.246 621.355C218.762 621.527 219.203 621.805 219.57 622.188C219.938 622.57 220.219 623.07 220.414 623.688C220.617 624.297 220.719 625.039 220.719 625.914V634H217.602V625.891C217.602 625.305 217.516 624.844 217.344 624.508C217.172 624.164 216.926 623.918 216.605 623.77C216.293 623.621 215.906 623.547 215.445 623.547C214.945 623.547 214.516 623.645 214.156 623.84C213.797 624.027 213.5 624.289 213.266 624.625C213.039 624.961 212.867 625.348 212.75 625.785C212.641 626.223 212.586 626.695 212.586 627.203ZM226.73 621.32V634H223.625V621.32H226.73ZM223.414 618.004C223.414 617.543 223.57 617.16 223.883 616.855C224.203 616.551 224.633 616.398 225.172 616.398C225.711 616.398 226.137 616.551 226.449 616.855C226.77 617.16 226.93 617.543 226.93 618.004C226.93 618.457 226.77 618.836 226.449 619.141C226.137 619.445 225.711 619.598 225.172 619.598C224.633 619.598 224.203 619.445 223.883 619.141C223.57 618.836 223.414 618.457 223.414 618.004ZM232.777 623.758V638.875H229.672V621.32H232.543L232.777 623.758ZM240.922 627.531V627.777C240.922 628.699 240.812 629.555 240.594 630.344C240.383 631.125 240.07 631.809 239.656 632.395C239.242 632.973 238.727 633.426 238.109 633.754C237.5 634.074 236.797 634.234 236 634.234C235.219 634.234 234.539 634.086 233.961 633.789C233.383 633.484 232.895 633.055 232.496 632.5C232.098 631.945 231.777 631.301 231.535 630.566C231.301 629.824 231.125 629.016 231.008 628.141V627.355C231.125 626.426 231.301 625.582 231.535 624.824C231.777 624.059 232.098 623.398 232.496 622.844C232.895 622.281 233.379 621.848 233.949 621.543C234.527 621.238 235.203 621.086 235.977 621.086C236.781 621.086 237.488 621.238 238.098 621.543C238.715 621.848 239.234 622.285 239.656 622.855C240.078 623.426 240.395 624.105 240.605 624.895C240.816 625.684 240.922 626.562 240.922 627.531ZM237.816 627.777V627.531C237.816 626.969 237.766 626.449 237.664 625.973C237.562 625.488 237.406 625.066 237.195 624.707C236.984 624.34 236.711 624.055 236.375 623.852C236.039 623.648 235.633 623.547 235.156 623.547C234.68 623.547 234.27 623.625 233.926 623.781C233.582 623.938 233.301 624.16 233.082 624.449C232.863 624.738 232.691 625.082 232.566 625.48C232.449 625.871 232.371 626.305 232.332 626.781V628.727C232.402 629.305 232.539 629.824 232.742 630.285C232.945 630.746 233.242 631.113 233.633 631.387C234.031 631.66 234.547 631.797 235.18 631.797C235.656 631.797 236.062 631.691 236.398 631.48C236.734 631.27 237.008 630.98 237.219 630.613C237.43 630.238 237.582 629.809 237.676 629.324C237.77 628.84 237.816 628.324 237.816 627.777ZM246.266 623.922V634H243.172V621.32H246.09L246.266 623.922ZM245.809 627.203H244.859C244.859 626.32 244.965 625.508 245.176 624.766C245.395 624.023 245.715 623.379 246.137 622.832C246.559 622.277 247.078 621.848 247.695 621.543C248.32 621.238 249.043 621.086 249.863 621.086C250.434 621.086 250.957 621.172 251.434 621.344C251.91 621.508 252.32 621.77 252.664 622.129C253.016 622.48 253.285 622.941 253.473 623.512C253.66 624.074 253.754 624.75 253.754 625.539V634H250.66V625.855C250.66 625.262 250.574 624.797 250.402 624.461C250.238 624.125 250 623.891 249.688 623.758C249.375 623.617 249 623.547 248.562 623.547C248.078 623.547 247.66 623.645 247.309 623.84C246.965 624.027 246.68 624.289 246.453 624.625C246.234 624.961 246.07 625.348 245.961 625.785C245.859 626.223 245.809 626.695 245.809 627.203ZM253.52 626.629L252.242 626.863C252.25 626.066 252.359 625.32 252.57 624.625C252.781 623.922 253.09 623.309 253.496 622.785C253.91 622.254 254.422 621.84 255.031 621.543C255.648 621.238 256.359 621.086 257.164 621.086C257.789 621.086 258.352 621.176 258.852 621.355C259.359 621.527 259.793 621.805 260.152 622.188C260.512 622.562 260.785 623.051 260.973 623.652C261.168 624.254 261.266 624.988 261.266 625.855V634H258.148V625.844C258.148 625.227 258.062 624.754 257.891 624.426C257.727 624.098 257.488 623.871 257.176 623.746C256.863 623.613 256.496 623.547 256.074 623.547C255.645 623.547 255.27 623.629 254.949 623.793C254.637 623.949 254.371 624.168 254.152 624.449C253.941 624.73 253.781 625.059 253.672 625.434C253.57 625.801 253.52 626.199 253.52 626.629ZM269.738 634.234C268.777 634.234 267.914 634.078 267.148 633.766C266.383 633.453 265.73 633.02 265.191 632.465C264.66 631.902 264.25 631.25 263.961 630.508C263.68 629.758 263.539 628.953 263.539 628.094V627.625C263.539 626.648 263.68 625.762 263.961 624.965C264.242 624.16 264.641 623.469 265.156 622.891C265.672 622.312 266.289 621.867 267.008 621.555C267.727 621.242 268.52 621.086 269.387 621.086C270.285 621.086 271.078 621.238 271.766 621.543C272.453 621.84 273.027 622.262 273.488 622.809C273.949 623.355 274.297 624.012 274.531 624.777C274.766 625.535 274.883 626.375 274.883 627.297V628.598H264.945V626.465H271.836V626.23C271.82 625.738 271.727 625.289 271.555 624.883C271.383 624.469 271.117 624.141 270.758 623.898C270.398 623.648 269.934 623.523 269.363 623.523C268.902 623.523 268.5 623.625 268.156 623.828C267.82 624.023 267.539 624.305 267.312 624.672C267.094 625.031 266.93 625.461 266.82 625.961C266.711 626.461 266.656 627.016 266.656 627.625V628.094C266.656 628.625 266.727 629.117 266.867 629.57C267.016 630.023 267.23 630.418 267.512 630.754C267.801 631.082 268.145 631.34 268.543 631.527C268.949 631.707 269.41 631.797 269.926 631.797C270.574 631.797 271.16 631.672 271.684 631.422C272.215 631.164 272.676 630.785 273.066 630.285L274.625 631.902C274.359 632.293 274 632.668 273.547 633.027C273.102 633.387 272.562 633.68 271.93 633.906C271.297 634.125 270.566 634.234 269.738 634.234ZM279.992 624.027V634H276.898V621.32H279.805L279.992 624.027ZM279.5 627.203H278.586C278.594 626.281 278.719 625.445 278.961 624.695C279.203 623.945 279.543 623.301 279.98 622.762C280.426 622.223 280.953 621.809 281.562 621.52C282.172 621.23 282.852 621.086 283.602 621.086C284.211 621.086 284.762 621.172 285.254 621.344C285.746 621.516 286.168 621.789 286.52 622.164C286.879 622.539 287.152 623.031 287.34 623.641C287.535 624.242 287.633 624.984 287.633 625.867V634H284.516V625.844C284.516 625.266 284.43 624.809 284.258 624.473C284.094 624.137 283.852 623.898 283.531 623.758C283.219 623.617 282.832 623.547 282.371 623.547C281.895 623.547 281.477 623.645 281.117 623.84C280.766 624.027 280.469 624.289 280.227 624.625C279.992 624.961 279.812 625.348 279.688 625.785C279.562 626.223 279.5 626.695 279.5 627.203ZM296.363 621.32V623.547H289.098V621.32H296.363ZM291.043 618.203H294.148V630.344C294.148 630.719 294.199 631.008 294.301 631.211C294.402 631.414 294.555 631.551 294.758 631.621C294.961 631.691 295.203 631.727 295.484 631.727C295.688 631.727 295.875 631.715 296.047 631.691C296.219 631.668 296.363 631.645 296.48 631.621L296.492 633.941C296.234 634.027 295.941 634.098 295.613 634.152C295.293 634.207 294.93 634.234 294.523 634.234C293.828 634.234 293.219 634.117 292.695 633.883C292.172 633.641 291.766 633.254 291.477 632.723C291.188 632.184 291.043 631.473 291.043 630.59V618.203ZM305.398 630.531C305.398 630.266 305.328 630.027 305.188 629.816C305.047 629.605 304.781 629.414 304.391 629.242C304.008 629.062 303.445 628.895 302.703 628.738C302.047 628.598 301.441 628.422 300.887 628.211C300.332 628 299.855 627.746 299.457 627.449C299.059 627.145 298.746 626.789 298.52 626.383C298.301 625.969 298.191 625.492 298.191 624.953C298.191 624.43 298.305 623.938 298.531 623.477C298.758 623.008 299.086 622.598 299.516 622.246C299.945 621.887 300.469 621.605 301.086 621.402C301.703 621.191 302.398 621.086 303.172 621.086C304.25 621.086 305.176 621.262 305.949 621.613C306.73 621.965 307.328 622.449 307.742 623.066C308.156 623.676 308.363 624.363 308.363 625.129H305.27C305.27 624.793 305.191 624.488 305.035 624.215C304.887 623.941 304.656 623.723 304.344 623.559C304.031 623.387 303.637 623.301 303.16 623.301C302.73 623.301 302.367 623.371 302.07 623.512C301.781 623.652 301.562 623.836 301.414 624.062C301.266 624.289 301.191 624.539 301.191 624.812C301.191 625.016 301.23 625.199 301.309 625.363C301.395 625.52 301.531 625.664 301.719 625.797C301.906 625.93 302.16 626.051 302.48 626.16C302.809 626.27 303.211 626.375 303.688 626.477C304.633 626.664 305.457 626.914 306.16 627.227C306.871 627.531 307.426 627.938 307.824 628.445C308.223 628.953 308.422 629.602 308.422 630.391C308.422 630.953 308.301 631.469 308.059 631.938C307.816 632.398 307.465 632.801 307.004 633.145C306.543 633.488 305.992 633.758 305.352 633.953C304.711 634.141 303.988 634.234 303.184 634.234C302.02 634.234 301.035 634.027 300.23 633.613C299.426 633.191 298.816 632.66 298.402 632.02C297.988 631.371 297.781 630.699 297.781 630.004H300.746C300.77 630.496 300.902 630.891 301.145 631.188C301.387 631.484 301.691 631.699 302.059 631.832C302.434 631.957 302.828 632.02 303.242 632.02C303.711 632.02 304.105 631.957 304.426 631.832C304.746 631.699 304.988 631.523 305.152 631.305C305.316 631.078 305.398 630.82 305.398 630.531Z" fill="#CDCDCD"/>
<path d="M472.898 165.117V166.465C472.898 168.626 472.605 170.566 472.02 172.285C471.434 174.004 470.607 175.469 469.539 176.68C468.471 177.878 467.195 178.796 465.711 179.434C464.24 180.072 462.605 180.391 460.809 180.391C459.025 180.391 457.391 180.072 455.906 179.434C454.435 178.796 453.159 177.878 452.078 176.68C450.997 175.469 450.158 174.004 449.559 172.285C448.973 170.566 448.68 168.626 448.68 166.465V165.117C448.68 162.943 448.973 161.003 449.559 159.297C450.145 157.578 450.971 156.113 452.039 154.902C453.12 153.691 454.396 152.767 455.867 152.129C457.352 151.491 458.986 151.172 460.77 151.172C462.566 151.172 464.201 151.491 465.672 152.129C467.156 152.767 468.432 153.691 469.5 154.902C470.581 156.113 471.414 157.578 472 159.297C472.599 161.003 472.898 162.943 472.898 165.117ZM466.98 166.465V165.078C466.98 163.568 466.844 162.24 466.57 161.094C466.297 159.948 465.893 158.984 465.359 158.203C464.826 157.422 464.174 156.836 463.406 156.445C462.638 156.042 461.759 155.84 460.77 155.84C459.78 155.84 458.901 156.042 458.133 156.445C457.378 156.836 456.733 157.422 456.199 158.203C455.678 158.984 455.281 159.948 455.008 161.094C454.734 162.24 454.598 163.568 454.598 165.078V166.465C454.598 167.962 454.734 169.29 455.008 170.449C455.281 171.595 455.685 172.565 456.219 173.359C456.753 174.141 457.404 174.733 458.172 175.137C458.94 175.54 459.819 175.742 460.809 175.742C461.798 175.742 462.677 175.54 463.445 175.137C464.214 174.733 464.858 174.141 465.379 173.359C465.9 172.565 466.297 171.595 466.57 170.449C466.844 169.29 466.98 167.962 466.98 166.465ZM483.953 175.898L488.641 158.867H494.52L487.391 180H483.836L483.953 175.898ZM480.73 158.867L485.438 175.918L485.535 180H481.961L474.832 158.867H480.73ZM506.492 180.391C504.852 180.391 503.38 180.13 502.078 179.609C500.776 179.076 499.669 178.34 498.758 177.402C497.859 176.465 497.169 175.378 496.688 174.141C496.206 172.891 495.965 171.562 495.965 170.156V169.375C495.965 167.773 496.193 166.309 496.648 164.98C497.104 163.652 497.755 162.5 498.602 161.523C499.461 160.547 500.503 159.798 501.727 159.277C502.951 158.743 504.331 158.477 505.867 158.477C507.365 158.477 508.693 158.724 509.852 159.219C511.01 159.714 511.98 160.417 512.762 161.328C513.556 162.24 514.155 163.333 514.559 164.609C514.962 165.872 515.164 167.279 515.164 168.828V171.172H498.367V167.422H509.637V166.992C509.637 166.211 509.493 165.514 509.207 164.902C508.934 164.277 508.517 163.783 507.957 163.418C507.397 163.053 506.681 162.871 505.809 162.871C505.066 162.871 504.428 163.034 503.895 163.359C503.361 163.685 502.924 164.141 502.586 164.727C502.26 165.312 502.013 166.003 501.844 166.797C501.688 167.578 501.609 168.438 501.609 169.375V170.156C501.609 171.003 501.727 171.784 501.961 172.5C502.208 173.216 502.553 173.835 502.996 174.355C503.452 174.876 503.999 175.28 504.637 175.566C505.288 175.853 506.023 175.996 506.844 175.996C507.859 175.996 508.803 175.801 509.676 175.41C510.561 175.007 511.323 174.401 511.961 173.594L514.695 176.562C514.253 177.201 513.647 177.812 512.879 178.398C512.124 178.984 511.212 179.466 510.145 179.844C509.077 180.208 507.859 180.391 506.492 180.391ZM523.992 163.477V180H518.367V158.867H523.66L523.992 163.477ZM530.359 158.73L530.262 163.945C529.988 163.906 529.656 163.874 529.266 163.848C528.888 163.809 528.543 163.789 528.23 163.789C527.436 163.789 526.746 163.893 526.16 164.102C525.587 164.297 525.105 164.59 524.715 164.98C524.337 165.371 524.051 165.846 523.855 166.406C523.673 166.966 523.569 167.604 523.543 168.32L522.41 167.969C522.41 166.602 522.547 165.345 522.82 164.199C523.094 163.04 523.491 162.031 524.012 161.172C524.546 160.312 525.197 159.648 525.965 159.18C526.733 158.711 527.612 158.477 528.602 158.477C528.914 158.477 529.233 158.503 529.559 158.555C529.884 158.594 530.151 158.652 530.359 158.73ZM540.555 175.898L545.242 158.867H551.121L543.992 180H540.438L540.555 175.898ZM537.332 158.867L542.039 175.918L542.137 180H538.562L531.434 158.867H537.332ZM559.578 158.867V180H553.934V158.867H559.578ZM553.582 153.359C553.582 152.539 553.868 151.862 554.441 151.328C555.014 150.794 555.783 150.527 556.746 150.527C557.697 150.527 558.458 150.794 559.031 151.328C559.617 151.862 559.91 152.539 559.91 153.359C559.91 154.18 559.617 154.857 559.031 155.391C558.458 155.924 557.697 156.191 556.746 156.191C555.783 156.191 555.014 155.924 554.441 155.391C553.868 154.857 553.582 154.18 553.582 153.359ZM573.953 180.391C572.312 180.391 570.841 180.13 569.539 179.609C568.237 179.076 567.13 178.34 566.219 177.402C565.32 176.465 564.63 175.378 564.148 174.141C563.667 172.891 563.426 171.562 563.426 170.156V169.375C563.426 167.773 563.654 166.309 564.109 164.98C564.565 163.652 565.216 162.5 566.062 161.523C566.922 160.547 567.964 159.798 569.188 159.277C570.411 158.743 571.792 158.477 573.328 158.477C574.826 158.477 576.154 158.724 577.312 159.219C578.471 159.714 579.441 160.417 580.223 161.328C581.017 162.24 581.616 163.333 582.02 164.609C582.423 165.872 582.625 167.279 582.625 168.828V171.172H565.828V167.422H577.098V166.992C577.098 166.211 576.954 165.514 576.668 164.902C576.395 164.277 575.978 163.783 575.418 163.418C574.858 163.053 574.142 162.871 573.27 162.871C572.527 162.871 571.889 163.034 571.355 163.359C570.822 163.685 570.385 164.141 570.047 164.727C569.721 165.312 569.474 166.003 569.305 166.797C569.148 167.578 569.07 168.438 569.07 169.375V170.156C569.07 171.003 569.188 171.784 569.422 172.5C569.669 173.216 570.014 173.835 570.457 174.355C570.913 174.876 571.46 175.28 572.098 175.566C572.749 175.853 573.484 175.996 574.305 175.996C575.32 175.996 576.264 175.801 577.137 175.41C578.022 175.007 578.784 174.401 579.422 173.594L582.156 176.562C581.714 177.201 581.108 177.812 580.34 178.398C579.585 178.984 578.673 179.466 577.605 179.844C576.538 180.208 575.32 180.391 573.953 180.391ZM591.863 174.531L596.258 158.867H599.832L598.68 165.02L594.285 180H591.297L591.863 174.531ZM589.637 158.867L592.781 174.512L593.074 180H589.559L584.207 158.867H589.637ZM603.855 174.258L606.922 158.867H612.371L607.02 180H603.523L603.855 174.258ZM600.32 158.867L604.695 174.414L605.301 180H602.293L597.898 165.039L596.785 158.867H600.32Z" fill="#535353"/>
<g filter="url(#filter0_d_10_238)">
<rect x="447" y="229" width="948" height="585" rx="20" fill="white"/>
</g>
<path d="M508.111 301.311V306.566H505.404V301.311H508.111ZM507.777 330.016V334.727H505.088V330.016H507.777ZM510.432 324.338C510.432 323.658 510.291 323.066 510.01 322.562C509.74 322.047 509.295 321.584 508.674 321.174C508.053 320.752 507.221 320.359 506.178 319.996C504.678 319.469 503.365 318.877 502.24 318.221C501.127 317.553 500.26 316.732 499.639 315.76C499.029 314.775 498.725 313.551 498.725 312.086C498.725 310.645 499.053 309.396 499.709 308.342C500.377 307.287 501.303 306.473 502.486 305.898C503.67 305.324 505.053 305.037 506.635 305.037C507.854 305.037 508.949 305.219 509.922 305.582C510.906 305.945 511.744 306.479 512.436 307.182C513.127 307.885 513.654 308.752 514.018 309.783C514.393 310.803 514.58 311.975 514.58 313.299H510.361C510.361 312.549 510.273 311.881 510.098 311.295C509.934 310.697 509.688 310.193 509.359 309.783C509.031 309.361 508.633 309.039 508.164 308.816C507.707 308.594 507.186 308.482 506.6 308.482C505.768 308.482 505.082 308.641 504.543 308.957C504.004 309.262 503.605 309.684 503.348 310.223C503.102 310.762 502.979 311.377 502.979 312.068C502.979 312.736 503.107 313.322 503.365 313.826C503.623 314.33 504.062 314.787 504.684 315.197C505.316 315.596 506.184 316 507.285 316.41C508.797 316.949 510.104 317.553 511.205 318.221C512.318 318.877 513.174 319.691 513.771 320.664C514.381 321.625 514.686 322.838 514.686 324.303C514.686 325.814 514.334 327.098 513.631 328.152C512.939 329.207 511.967 330.01 510.713 330.561C509.471 331.1 508.023 331.369 506.371 331.369C505.328 331.369 504.291 331.234 503.26 330.965C502.24 330.684 501.314 330.227 500.482 329.594C499.65 328.961 498.988 328.123 498.496 327.08C498.004 326.025 497.758 324.736 497.758 323.213H502.012C502.012 324.127 502.135 324.889 502.381 325.498C502.627 326.107 502.961 326.588 503.383 326.939C503.805 327.291 504.273 327.543 504.789 327.695C505.316 327.848 505.844 327.924 506.371 327.924C507.25 327.924 507.988 327.777 508.586 327.484C509.195 327.18 509.652 326.758 509.957 326.219C510.273 325.668 510.432 325.041 510.432 324.338ZM521.805 327.66H522.156C523.773 327.66 525.121 327.449 526.199 327.027C527.289 326.594 528.156 325.996 528.801 325.234C529.445 324.473 529.908 323.576 530.189 322.545C530.471 321.514 530.611 320.395 530.611 319.188V314.775C530.611 313.732 530.5 312.818 530.277 312.033C530.066 311.236 529.762 310.574 529.363 310.047C528.977 309.508 528.525 309.104 528.01 308.834C527.506 308.564 526.961 308.43 526.375 308.43C525.73 308.43 525.15 308.576 524.635 308.869C524.131 309.15 523.703 309.543 523.352 310.047C523.012 310.539 522.748 311.119 522.561 311.787C522.385 312.443 522.297 313.146 522.297 313.896C522.297 314.6 522.379 315.279 522.543 315.936C522.719 316.58 522.977 317.154 523.316 317.658C523.656 318.162 524.084 318.561 524.6 318.854C525.115 319.146 525.719 319.293 526.41 319.293C527.066 319.293 527.67 319.17 528.221 318.924C528.771 318.666 529.252 318.32 529.662 317.887C530.072 317.453 530.395 316.967 530.629 316.428C530.863 315.889 530.992 315.338 531.016 314.775L532.633 315.268C532.633 316.158 532.445 317.037 532.07 317.904C531.707 318.76 531.197 319.545 530.541 320.26C529.896 320.963 529.141 321.525 528.273 321.947C527.418 322.369 526.486 322.58 525.479 322.58C524.26 322.58 523.182 322.352 522.244 321.895C521.318 321.426 520.545 320.793 519.924 319.996C519.314 319.199 518.857 318.285 518.553 317.254C518.248 316.223 518.096 315.139 518.096 314.002C518.096 312.771 518.283 311.617 518.658 310.539C519.033 309.461 519.578 308.512 520.293 307.691C521.008 306.859 521.875 306.215 522.895 305.758C523.926 305.289 525.092 305.055 526.393 305.055C527.775 305.055 528.988 305.324 530.031 305.863C531.074 306.402 531.953 307.146 532.668 308.096C533.383 309.045 533.922 310.146 534.285 311.4C534.648 312.654 534.83 314.002 534.83 315.443V316.938C534.83 318.449 534.695 319.908 534.426 321.314C534.156 322.709 533.717 324.004 533.107 325.199C532.51 326.383 531.719 327.426 530.734 328.328C529.762 329.219 528.566 329.916 527.148 330.42C525.742 330.912 524.09 331.158 522.191 331.158H521.805V327.66ZM555.59 324.021C555.59 325.615 555.221 326.957 554.482 328.047C553.744 329.137 552.736 329.963 551.459 330.525C550.193 331.076 548.764 331.352 547.17 331.352C545.576 331.352 544.141 331.076 542.863 330.525C541.586 329.963 540.578 329.137 539.84 328.047C539.102 326.957 538.732 325.615 538.732 324.021C538.732 322.967 538.938 322.012 539.348 321.156C539.758 320.289 540.338 319.545 541.088 318.924C541.85 318.291 542.74 317.805 543.76 317.465C544.791 317.125 545.916 316.955 547.135 316.955C548.752 316.955 550.199 317.254 551.477 317.852C552.754 318.449 553.756 319.275 554.482 320.33C555.221 321.385 555.59 322.615 555.59 324.021ZM551.336 323.811C551.336 322.955 551.16 322.205 550.809 321.561C550.457 320.916 549.965 320.418 549.332 320.066C548.699 319.715 547.967 319.539 547.135 319.539C546.291 319.539 545.559 319.715 544.938 320.066C544.316 320.418 543.83 320.916 543.479 321.561C543.139 322.205 542.969 322.955 542.969 323.811C542.969 324.678 543.139 325.428 543.479 326.061C543.818 326.682 544.305 327.156 544.938 327.484C545.57 327.812 546.314 327.977 547.17 327.977C548.025 327.977 548.764 327.812 549.385 327.484C550.006 327.156 550.486 326.682 550.826 326.061C551.166 325.428 551.336 324.678 551.336 323.811ZM555.01 312.139C555.01 313.416 554.67 314.553 553.99 315.549C553.322 316.545 552.396 317.33 551.213 317.904C550.029 318.467 548.682 318.748 547.17 318.748C545.646 318.748 544.287 318.467 543.092 317.904C541.908 317.33 540.977 316.545 540.297 315.549C539.629 314.553 539.295 313.416 539.295 312.139C539.295 310.615 539.629 309.332 540.297 308.289C540.977 307.234 541.908 306.432 543.092 305.881C544.275 305.33 545.629 305.055 547.152 305.055C548.676 305.055 550.029 305.33 551.213 305.881C552.396 306.432 553.322 307.234 553.99 308.289C554.67 309.332 555.01 310.615 555.01 312.139ZM550.773 312.279C550.773 311.518 550.621 310.85 550.316 310.275C550.023 309.689 549.607 309.232 549.068 308.904C548.529 308.576 547.891 308.412 547.152 308.412C546.414 308.412 545.775 308.57 545.236 308.887C544.697 309.203 544.281 309.648 543.988 310.223C543.695 310.797 543.549 311.482 543.549 312.279C543.549 313.064 543.695 313.75 543.988 314.336C544.281 314.91 544.697 315.361 545.236 315.689C545.787 316.018 546.432 316.182 547.17 316.182C547.908 316.182 548.547 316.018 549.086 315.689C549.625 315.361 550.041 314.91 550.334 314.336C550.627 313.75 550.773 313.064 550.773 312.279ZM575.998 316.059V320.242C575.998 322.246 575.799 323.957 575.4 325.375C575.014 326.781 574.451 327.924 573.713 328.803C572.975 329.682 572.09 330.326 571.059 330.736C570.039 331.146 568.896 331.352 567.631 331.352C566.623 331.352 565.686 331.223 564.818 330.965C563.963 330.707 563.189 330.303 562.498 329.752C561.807 329.201 561.215 328.492 560.723 327.625C560.242 326.746 559.867 325.697 559.598 324.479C559.34 323.26 559.211 321.848 559.211 320.242V316.059C559.211 314.043 559.41 312.344 559.809 310.961C560.207 309.566 560.775 308.436 561.514 307.568C562.252 306.689 563.131 306.051 564.15 305.652C565.182 305.254 566.33 305.055 567.596 305.055C568.615 305.055 569.553 305.184 570.408 305.441C571.275 305.688 572.049 306.08 572.729 306.619C573.42 307.158 574.006 307.861 574.486 308.729C574.979 309.584 575.354 310.621 575.611 311.84C575.869 313.047 575.998 314.453 575.998 316.059ZM571.762 320.84V315.426C571.762 314.406 571.703 313.51 571.586 312.736C571.469 311.951 571.293 311.289 571.059 310.75C570.836 310.199 570.555 309.754 570.215 309.414C569.875 309.062 569.488 308.811 569.055 308.658C568.621 308.494 568.135 308.412 567.596 308.412C566.939 308.412 566.354 308.541 565.838 308.799C565.322 309.045 564.889 309.443 564.537 309.994C564.186 310.545 563.916 311.271 563.729 312.174C563.553 313.064 563.465 314.148 563.465 315.426V320.84C563.465 321.871 563.523 322.779 563.641 323.564C563.758 324.35 563.934 325.023 564.168 325.586C564.402 326.137 564.684 326.594 565.012 326.957C565.352 327.309 565.738 327.566 566.172 327.73C566.617 327.895 567.104 327.977 567.631 327.977C568.299 327.977 568.891 327.848 569.406 327.59C569.922 327.332 570.355 326.922 570.707 326.359C571.059 325.785 571.322 325.041 571.498 324.127C571.674 323.213 571.762 322.117 571.762 320.84ZM583.996 326.922L583.979 329.945C583.979 331.141 583.68 332.371 583.082 333.637C582.484 334.902 581.693 335.945 580.709 336.766L578.441 335.447C578.77 334.92 579.068 334.387 579.338 333.848C579.607 333.309 579.824 332.734 579.988 332.125C580.152 331.516 580.234 330.842 580.234 330.104V326.922H583.996ZM604.984 327.625V331H587.828V328.1L596.16 319.012C597.074 317.98 597.795 317.09 598.322 316.34C598.85 315.59 599.219 314.916 599.43 314.318C599.652 313.709 599.764 313.117 599.764 312.543C599.764 311.734 599.611 311.025 599.307 310.416C599.014 309.795 598.58 309.309 598.006 308.957C597.432 308.594 596.734 308.412 595.914 308.412C594.965 308.412 594.168 308.617 593.523 309.027C592.879 309.438 592.393 310.006 592.064 310.732C591.736 311.447 591.572 312.268 591.572 313.193H587.336C587.336 311.705 587.676 310.346 588.355 309.115C589.035 307.873 590.02 306.889 591.309 306.162C592.598 305.424 594.15 305.055 595.967 305.055C597.678 305.055 599.131 305.342 600.326 305.916C601.521 306.49 602.43 307.305 603.051 308.359C603.684 309.414 604 310.662 604 312.104C604 312.9 603.871 313.691 603.613 314.477C603.355 315.262 602.986 316.047 602.506 316.832C602.037 317.605 601.48 318.385 600.836 319.17C600.191 319.943 599.482 320.729 598.709 321.525L593.172 327.625H604.984ZM625.287 305.406V307.727L615.057 331H610.592L620.805 308.781H607.551V305.406H625.287ZM633.725 316.287H636.256C637.24 316.287 638.055 316.117 638.699 315.777C639.355 315.438 639.842 314.969 640.158 314.371C640.475 313.773 640.633 313.088 640.633 312.314C640.633 311.506 640.486 310.814 640.193 310.24C639.912 309.654 639.479 309.203 638.893 308.887C638.318 308.57 637.586 308.412 636.695 308.412C635.945 308.412 635.266 308.564 634.656 308.869C634.059 309.162 633.584 309.584 633.232 310.135C632.881 310.674 632.705 311.318 632.705 312.068H628.451C628.451 310.709 628.809 309.502 629.523 308.447C630.238 307.393 631.211 306.566 632.441 305.969C633.684 305.359 635.078 305.055 636.625 305.055C638.277 305.055 639.719 305.33 640.949 305.881C642.191 306.42 643.158 307.229 643.85 308.307C644.541 309.385 644.887 310.721 644.887 312.314C644.887 313.041 644.717 313.779 644.377 314.529C644.037 315.279 643.533 315.965 642.865 316.586C642.197 317.195 641.365 317.693 640.369 318.08C639.373 318.455 638.219 318.643 636.906 318.643H633.725V316.287ZM633.725 319.592V317.271H636.906C638.406 317.271 639.684 317.447 640.738 317.799C641.805 318.15 642.672 318.637 643.34 319.258C644.008 319.867 644.494 320.564 644.799 321.35C645.115 322.135 645.273 322.967 645.273 323.846C645.273 325.041 645.057 326.107 644.623 327.045C644.201 327.971 643.598 328.756 642.812 329.4C642.027 330.045 641.107 330.531 640.053 330.859C639.01 331.188 637.873 331.352 636.643 331.352C635.541 331.352 634.486 331.199 633.479 330.895C632.471 330.59 631.568 330.139 630.771 329.541C629.975 328.932 629.342 328.176 628.873 327.273C628.416 326.359 628.188 325.305 628.188 324.109H632.424C632.424 324.871 632.6 325.545 632.951 326.131C633.314 326.705 633.818 327.156 634.463 327.484C635.119 327.812 635.869 327.977 636.713 327.977C637.604 327.977 638.371 327.818 639.016 327.502C639.66 327.186 640.152 326.717 640.492 326.096C640.844 325.475 641.02 324.725 641.02 323.846C641.02 322.85 640.826 322.041 640.439 321.42C640.053 320.799 639.502 320.342 638.787 320.049C638.072 319.744 637.229 319.592 636.256 319.592H633.725ZM649.633 328.891C649.633 328.234 649.855 327.684 650.301 327.238C650.746 326.781 651.35 326.553 652.111 326.553C652.885 326.553 653.488 326.781 653.922 327.238C654.367 327.684 654.59 328.234 654.59 328.891C654.59 329.547 654.367 330.098 653.922 330.543C653.488 330.988 652.885 331.211 652.111 331.211C651.35 331.211 650.746 330.988 650.301 330.543C649.855 330.098 649.633 329.547 649.633 328.891ZM675.912 316.059V320.242C675.912 322.246 675.713 323.957 675.314 325.375C674.928 326.781 674.365 327.924 673.627 328.803C672.889 329.682 672.004 330.326 670.973 330.736C669.953 331.146 668.811 331.352 667.545 331.352C666.537 331.352 665.6 331.223 664.732 330.965C663.877 330.707 663.104 330.303 662.412 329.752C661.721 329.201 661.129 328.492 660.637 327.625C660.156 326.746 659.781 325.697 659.512 324.479C659.254 323.26 659.125 321.848 659.125 320.242V316.059C659.125 314.043 659.324 312.344 659.723 310.961C660.121 309.566 660.689 308.436 661.428 307.568C662.166 306.689 663.045 306.051 664.064 305.652C665.096 305.254 666.244 305.055 667.51 305.055C668.529 305.055 669.467 305.184 670.322 305.441C671.189 305.688 671.963 306.08 672.643 306.619C673.334 307.158 673.92 307.861 674.4 308.729C674.893 309.584 675.268 310.621 675.525 311.84C675.783 313.047 675.912 314.453 675.912 316.059ZM671.676 320.84V315.426C671.676 314.406 671.617 313.51 671.5 312.736C671.383 311.951 671.207 311.289 670.973 310.75C670.75 310.199 670.469 309.754 670.129 309.414C669.789 309.062 669.402 308.811 668.969 308.658C668.535 308.494 668.049 308.412 667.51 308.412C666.854 308.412 666.268 308.541 665.752 308.799C665.236 309.045 664.803 309.443 664.451 309.994C664.1 310.545 663.83 311.271 663.643 312.174C663.467 313.064 663.379 314.148 663.379 315.426V320.84C663.379 321.871 663.438 322.779 663.555 323.564C663.672 324.35 663.848 325.023 664.082 325.586C664.316 326.137 664.598 326.594 664.926 326.957C665.266 327.309 665.652 327.566 666.086 327.73C666.531 327.895 667.018 327.977 667.545 327.977C668.213 327.977 668.805 327.848 669.32 327.59C669.836 327.332 670.27 326.922 670.621 326.359C670.973 325.785 671.236 325.041 671.412 324.127C671.588 323.213 671.676 322.117 671.676 320.84ZM696.373 316.059V320.242C696.373 322.246 696.174 323.957 695.775 325.375C695.389 326.781 694.826 327.924 694.088 328.803C693.35 329.682 692.465 330.326 691.434 330.736C690.414 331.146 689.271 331.352 688.006 331.352C686.998 331.352 686.061 331.223 685.193 330.965C684.338 330.707 683.564 330.303 682.873 329.752C682.182 329.201 681.59 328.492 681.098 327.625C680.617 326.746 680.242 325.697 679.973 324.479C679.715 323.26 679.586 321.848 679.586 320.242V316.059C679.586 314.043 679.785 312.344 680.184 310.961C680.582 309.566 681.15 308.436 681.889 307.568C682.627 306.689 683.506 306.051 684.525 305.652C685.557 305.254 686.705 305.055 687.971 305.055C688.99 305.055 689.928 305.184 690.783 305.441C691.65 305.688 692.424 306.08 693.104 306.619C693.795 307.158 694.381 307.861 694.861 308.729C695.354 309.584 695.729 310.621 695.986 311.84C696.244 313.047 696.373 314.453 696.373 316.059ZM692.137 320.84V315.426C692.137 314.406 692.078 313.51 691.961 312.736C691.844 311.951 691.668 311.289 691.434 310.75C691.211 310.199 690.93 309.754 690.59 309.414C690.25 309.062 689.863 308.811 689.43 308.658C688.996 308.494 688.51 308.412 687.971 308.412C687.314 308.412 686.729 308.541 686.213 308.799C685.697 309.045 685.264 309.443 684.912 309.994C684.561 310.545 684.291 311.271 684.104 312.174C683.928 313.064 683.84 314.148 683.84 315.426V320.84C683.84 321.871 683.898 322.779 684.016 323.564C684.133 324.35 684.309 325.023 684.543 325.586C684.777 326.137 685.059 326.594 685.387 326.957C685.727 327.309 686.113 327.566 686.547 327.73C686.992 327.895 687.479 327.977 688.006 327.977C688.674 327.977 689.266 327.848 689.781 327.59C690.297 327.332 690.73 326.922 691.082 326.359C691.434 325.785 691.697 325.041 691.873 324.127C692.049 323.213 692.137 322.117 692.137 320.84Z" fill="black"/>
<path d="M504.754 267.938V285H501.836V267.938H504.754ZM510.109 267.938V270.281H496.527V267.938H510.109ZM509.898 278.801V278.531C509.898 277.617 510.031 276.77 510.297 275.988C510.562 275.199 510.945 274.516 511.445 273.938C511.953 273.352 512.57 272.898 513.297 272.578C514.031 272.25 514.859 272.086 515.781 272.086C516.711 272.086 517.539 272.25 518.266 272.578C519 272.898 519.621 273.352 520.129 273.938C520.637 274.516 521.023 275.199 521.289 275.988C521.555 276.77 521.688 277.617 521.688 278.531V278.801C521.688 279.715 521.555 280.562 521.289 281.344C521.023 282.125 520.637 282.809 520.129 283.395C519.621 283.973 519.004 284.426 518.277 284.754C517.551 285.074 516.727 285.234 515.805 285.234C514.875 285.234 514.043 285.074 513.309 284.754C512.582 284.426 511.965 283.973 511.457 283.395C510.949 282.809 510.562 282.125 510.297 281.344C510.031 280.562 509.898 279.715 509.898 278.801ZM512.723 278.531V278.801C512.723 279.371 512.781 279.91 512.898 280.418C513.016 280.926 513.199 281.371 513.449 281.754C513.699 282.137 514.02 282.438 514.41 282.656C514.801 282.875 515.266 282.984 515.805 282.984C516.328 282.984 516.781 282.875 517.164 282.656C517.555 282.438 517.875 282.137 518.125 281.754C518.375 281.371 518.559 280.926 518.676 280.418C518.801 279.91 518.863 279.371 518.863 278.801V278.531C518.863 277.969 518.801 277.438 518.676 276.938C518.559 276.43 518.371 275.98 518.113 275.59C517.863 275.199 517.543 274.895 517.152 274.676C516.77 274.449 516.312 274.336 515.781 274.336C515.25 274.336 514.789 274.449 514.398 274.676C514.016 274.895 513.699 275.199 513.449 275.59C513.199 275.98 513.016 276.43 512.898 276.938C512.781 277.438 512.723 277.969 512.723 278.531ZM529.867 272.32V274.383H522.719V272.32H529.867ZM524.781 269.215H527.605V281.496C527.605 281.887 527.66 282.188 527.77 282.398C527.887 282.602 528.047 282.738 528.25 282.809C528.453 282.879 528.691 282.914 528.965 282.914C529.16 282.914 529.348 282.902 529.527 282.879C529.707 282.855 529.852 282.832 529.961 282.809L529.973 284.965C529.738 285.035 529.465 285.098 529.152 285.152C528.848 285.207 528.496 285.234 528.098 285.234C527.449 285.234 526.875 285.121 526.375 284.895C525.875 284.66 525.484 284.281 525.203 283.758C524.922 283.234 524.781 282.539 524.781 281.672V269.215ZM539.195 282.457V276.41C539.195 275.957 539.113 275.566 538.949 275.238C538.785 274.91 538.535 274.656 538.199 274.477C537.871 274.297 537.457 274.207 536.957 274.207C536.496 274.207 536.098 274.285 535.762 274.441C535.426 274.598 535.164 274.809 534.977 275.074C534.789 275.34 534.695 275.641 534.695 275.977H531.883C531.883 275.477 532.004 274.992 532.246 274.523C532.488 274.055 532.84 273.637 533.301 273.27C533.762 272.902 534.312 272.613 534.953 272.402C535.594 272.191 536.312 272.086 537.109 272.086C538.062 272.086 538.906 272.246 539.641 272.566C540.383 272.887 540.965 273.371 541.387 274.02C541.816 274.66 542.031 275.465 542.031 276.434V282.07C542.031 282.648 542.07 283.168 542.148 283.629C542.234 284.082 542.355 284.477 542.512 284.812V285H539.617C539.484 284.695 539.379 284.309 539.301 283.84C539.23 283.363 539.195 282.902 539.195 282.457ZM539.605 277.289L539.629 279.035H537.602C537.078 279.035 536.617 279.086 536.219 279.188C535.82 279.281 535.488 279.422 535.223 279.609C534.957 279.797 534.758 280.023 534.625 280.289C534.492 280.555 534.426 280.855 534.426 281.191C534.426 281.527 534.504 281.836 534.66 282.117C534.816 282.391 535.043 282.605 535.34 282.762C535.645 282.918 536.012 282.996 536.441 282.996C537.02 282.996 537.523 282.879 537.953 282.645C538.391 282.402 538.734 282.109 538.984 281.766C539.234 281.414 539.367 281.082 539.383 280.77L540.297 282.023C540.203 282.344 540.043 282.688 539.816 283.055C539.59 283.422 539.293 283.773 538.926 284.109C538.566 284.438 538.133 284.707 537.625 284.918C537.125 285.129 536.547 285.234 535.891 285.234C535.062 285.234 534.324 285.07 533.676 284.742C533.027 284.406 532.52 283.957 532.152 283.395C531.785 282.824 531.602 282.18 531.602 281.461C531.602 280.789 531.727 280.195 531.977 279.68C532.234 279.156 532.609 278.719 533.102 278.367C533.602 278.016 534.211 277.75 534.93 277.57C535.648 277.383 536.469 277.289 537.391 277.289H539.605ZM548.008 267V285H545.172V267H548.008ZM557.359 267.938H563.395C564.691 267.938 565.797 268.133 566.711 268.523C567.625 268.914 568.324 269.492 568.809 270.258C569.301 271.016 569.547 271.953 569.547 273.07C569.547 273.922 569.391 274.672 569.078 275.32C568.766 275.969 568.324 276.516 567.754 276.961C567.184 277.398 566.504 277.738 565.715 277.98L564.824 278.414H559.398L559.375 276.082H563.441C564.145 276.082 564.73 275.957 565.199 275.707C565.668 275.457 566.02 275.117 566.254 274.688C566.496 274.25 566.617 273.758 566.617 273.211C566.617 272.617 566.5 272.102 566.266 271.664C566.039 271.219 565.688 270.879 565.211 270.645C564.734 270.402 564.129 270.281 563.395 270.281H560.301V285H557.359V267.938ZM567.098 285L563.09 277.336L566.172 277.324L570.238 284.848V285H567.098ZM577.785 285.234C576.848 285.234 576 285.082 575.242 284.777C574.492 284.465 573.852 284.031 573.32 283.477C572.797 282.922 572.395 282.27 572.113 281.52C571.832 280.77 571.691 279.961 571.691 279.094V278.625C571.691 277.633 571.836 276.734 572.125 275.93C572.414 275.125 572.816 274.438 573.332 273.867C573.848 273.289 574.457 272.848 575.16 272.543C575.863 272.238 576.625 272.086 577.445 272.086C578.352 272.086 579.145 272.238 579.824 272.543C580.504 272.848 581.066 273.277 581.512 273.832C581.965 274.379 582.301 275.031 582.52 275.789C582.746 276.547 582.859 277.383 582.859 278.297V279.504H573.062V277.477H580.07V277.254C580.055 276.746 579.953 276.27 579.766 275.824C579.586 275.379 579.309 275.02 578.934 274.746C578.559 274.473 578.059 274.336 577.434 274.336C576.965 274.336 576.547 274.438 576.18 274.641C575.82 274.836 575.52 275.121 575.277 275.496C575.035 275.871 574.848 276.324 574.715 276.855C574.59 277.379 574.527 277.969 574.527 278.625V279.094C574.527 279.648 574.602 280.164 574.75 280.641C574.906 281.109 575.133 281.52 575.43 281.871C575.727 282.223 576.086 282.5 576.508 282.703C576.93 282.898 577.41 282.996 577.949 282.996C578.629 282.996 579.234 282.859 579.766 282.586C580.297 282.312 580.758 281.926 581.148 281.426L582.637 282.867C582.363 283.266 582.008 283.648 581.57 284.016C581.133 284.375 580.598 284.668 579.965 284.895C579.34 285.121 578.613 285.234 577.785 285.234ZM589.023 282.762L592.129 272.32H595.059L590.652 285H588.824L589.023 282.762ZM586.645 272.32L589.809 282.809L589.961 285H588.133L583.703 272.32H586.645ZM602.23 285.234C601.293 285.234 600.445 285.082 599.688 284.777C598.938 284.465 598.297 284.031 597.766 283.477C597.242 282.922 596.84 282.27 596.559 281.52C596.277 280.77 596.137 279.961 596.137 279.094V278.625C596.137 277.633 596.281 276.734 596.57 275.93C596.859 275.125 597.262 274.438 597.777 273.867C598.293 273.289 598.902 272.848 599.605 272.543C600.309 272.238 601.07 272.086 601.891 272.086C602.797 272.086 603.59 272.238 604.27 272.543C604.949 272.848 605.512 273.277 605.957 273.832C606.41 274.379 606.746 275.031 606.965 275.789C607.191 276.547 607.305 277.383 607.305 278.297V279.504H597.508V277.477H604.516V277.254C604.5 276.746 604.398 276.27 604.211 275.824C604.031 275.379 603.754 275.02 603.379 274.746C603.004 274.473 602.504 274.336 601.879 274.336C601.41 274.336 600.992 274.438 600.625 274.641C600.266 274.836 599.965 275.121 599.723 275.496C599.48 275.871 599.293 276.324 599.16 276.855C599.035 277.379 598.973 277.969 598.973 278.625V279.094C598.973 279.648 599.047 280.164 599.195 280.641C599.352 281.109 599.578 281.52 599.875 281.871C600.172 282.223 600.531 282.5 600.953 282.703C601.375 282.898 601.855 282.996 602.395 282.996C603.074 282.996 603.68 282.859 604.211 282.586C604.742 282.312 605.203 281.926 605.594 281.426L607.082 282.867C606.809 283.266 606.453 283.648 606.016 284.016C605.578 284.375 605.043 284.668 604.41 284.895C603.785 285.121 603.059 285.234 602.23 285.234ZM612.309 275.027V285H609.484V272.32H612.145L612.309 275.027ZM611.805 278.191L610.891 278.18C610.898 277.281 611.023 276.457 611.266 275.707C611.516 274.957 611.859 274.312 612.297 273.773C612.742 273.234 613.273 272.82 613.891 272.531C614.508 272.234 615.195 272.086 615.953 272.086C616.562 272.086 617.113 272.172 617.605 272.344C618.105 272.508 618.531 272.777 618.883 273.152C619.242 273.527 619.516 274.016 619.703 274.617C619.891 275.211 619.984 275.941 619.984 276.809V285H617.148V276.797C617.148 276.188 617.059 275.707 616.879 275.355C616.707 274.996 616.453 274.742 616.117 274.594C615.789 274.438 615.379 274.359 614.887 274.359C614.402 274.359 613.969 274.461 613.586 274.664C613.203 274.867 612.879 275.145 612.613 275.496C612.355 275.848 612.156 276.254 612.016 276.715C611.875 277.176 611.805 277.668 611.805 278.191ZM630.496 282.012V272.32H633.332V285H630.66L630.496 282.012ZM630.895 279.375L631.844 279.352C631.844 280.203 631.75 280.988 631.562 281.707C631.375 282.418 631.086 283.039 630.695 283.57C630.305 284.094 629.805 284.504 629.195 284.801C628.586 285.09 627.855 285.234 627.004 285.234C626.387 285.234 625.82 285.145 625.305 284.965C624.789 284.785 624.344 284.508 623.969 284.133C623.602 283.758 623.316 283.27 623.113 282.668C622.91 282.066 622.809 281.348 622.809 280.512V272.32H625.633V280.535C625.633 280.996 625.688 281.383 625.797 281.695C625.906 282 626.055 282.246 626.242 282.434C626.43 282.621 626.648 282.754 626.898 282.832C627.148 282.91 627.414 282.949 627.695 282.949C628.5 282.949 629.133 282.793 629.594 282.48C630.062 282.16 630.395 281.73 630.59 281.191C630.793 280.652 630.895 280.047 630.895 279.375ZM641.816 285.234C640.879 285.234 640.031 285.082 639.273 284.777C638.523 284.465 637.883 284.031 637.352 283.477C636.828 282.922 636.426 282.27 636.145 281.52C635.863 280.77 635.723 279.961 635.723 279.094V278.625C635.723 277.633 635.867 276.734 636.156 275.93C636.445 275.125 636.848 274.438 637.363 273.867C637.879 273.289 638.488 272.848 639.191 272.543C639.895 272.238 640.656 272.086 641.477 272.086C642.383 272.086 643.176 272.238 643.855 272.543C644.535 272.848 645.098 273.277 645.543 273.832C645.996 274.379 646.332 275.031 646.551 275.789C646.777 276.547 646.891 277.383 646.891 278.297V279.504H637.094V277.477H644.102V277.254C644.086 276.746 643.984 276.27 643.797 275.824C643.617 275.379 643.34 275.02 642.965 274.746C642.59 274.473 642.09 274.336 641.465 274.336C640.996 274.336 640.578 274.438 640.211 274.641C639.852 274.836 639.551 275.121 639.309 275.496C639.066 275.871 638.879 276.324 638.746 276.855C638.621 277.379 638.559 277.969 638.559 278.625V279.094C638.559 279.648 638.633 280.164 638.781 280.641C638.938 281.109 639.164 281.52 639.461 281.871C639.758 282.223 640.117 282.5 640.539 282.703C640.961 282.898 641.441 282.996 641.98 282.996C642.66 282.996 643.266 282.859 643.797 282.586C644.328 282.312 644.789 281.926 645.18 281.426L646.668 282.867C646.395 283.266 646.039 283.648 645.602 284.016C645.164 284.375 644.629 284.668 643.996 284.895C643.371 285.121 642.645 285.234 641.816 285.234Z" fill="#A7A7A7"/>
<path d="M496 559.5C496 552.596 501.596 547 508.5 547V547C515.404 547 521 552.596 521 559.5V709H496V559.5Z" fill="#FFC029"/>
<path d="M571 506.5C571 499.596 576.596 494 583.5 494V494C590.404 494 596 499.596 596 506.5V709H571V506.5Z" fill="#FFC029"/>
<path d="M546 542.5C546 535.596 551.596 530 558.5 530V530C565.404 530 571 535.596 571 542.5V709H546V542.5Z" fill="#EDEDED"/>
<path d="M621 462.5C621 455.596 626.596 450 633.5 450V450C640.404 450 646 455.596 646 462.5V709H621V462.5Z" fill="#EDEDED"/>
</g>
</g>
<defs>
<filter id="filter0_d_10_238" x="443" y="229" width="956" height="593" filterUnits="userSpaceOnUse" color-interpolation-filters="sRGB">
<feFlood flood-opacity="0" result="BackgroundImageFix"/>
<feColorMatrix in="SourceAlpha" type="matrix" values="0 0 0 0 0 0 0 0 0 0 0 0 0 0 0 0 0 0 127 0" result="hardAlpha"/>
<feOffset dy="4"/>
<feGaussianBlur stdDeviation="2"/>
<feComposite in2="hardAlpha" operator="out"/>
<feColorMatrix type="matrix" values="0 0 0 0 0 0 0 0 0 0 0 0 0 0 0 0 0 0 0.25 0"/>
<feBlend mode="normal" in2="BackgroundImageFix" result="effect1_dropShadow_10_238"/>
<feBlend mode="normal" in="SourceGraphic" in2="effect1_dropShadow_10_238" result="shape"/>
</filter>
<linearGradient id="paint0_linear_10_238" x1="148" y1="164" x2="213" y2="164" gradientUnits="userSpaceOnUse">
<stop stop-color="#FFC42A"/>
<stop offset="1" stop-color="#F74316"/>
</linearGradient>
<clipPath id="clip0_10_238">
<rect width="628" height="628" rx="16" fill="white"/>
</clipPath>
<clipPath id="clip1_10_238">
<rect x="85" y="88" width="1059" height="685" rx="50" fill="white"/>
</clipPath>
</defs>
</svg>
