<svg width="498" height="127" viewBox="0 0 498 127" fill="none" xmlns="http://www.w3.org/2000/svg">
<path d="M111.125 67.6804C110.293 76.6879 106.912 85.2721 101.379 92.4284C95.8461 99.5848 88.3894 105.017 79.8815 108.09C71.3736 111.164 62.1665 111.75 53.3375 109.781C44.5084 107.813 36.4226 103.37 30.0262 96.9739C23.6298 90.5775 19.1874 82.4917 17.2187 73.6626C15.25 64.8336 15.8365 55.6264 18.9096 47.1186C21.9828 38.6107 27.4153 31.154 34.5717 25.6209C41.728 20.0879 50.3122 16.7074 59.3197 15.875C54.0461 23.0096 51.5084 31.8 52.1682 40.6475C52.8279 49.495 56.6414 57.8118 62.9148 64.0852C69.1883 70.3587 77.5051 74.1722 86.3526 74.8319C95.2001 75.4917 103.991 72.954 111.125 67.6804Z" fill="black" stroke="black" stroke-width="2" stroke-linecap="round" stroke-linejoin="round"/>
<path d="M151.858 25.4339H171.874L190.568 76.5387H190.873L209.364 25.4339H229.481V97.3668H216.781V39.5563H216.578L194.734 97.3668H185.793L164.254 39.5563H164.05V97.3668H151.858V25.4339Z" fill="black"/>
<path d="M241.868 72.7795C241.868 68.9187 242.545 65.4305 243.9 62.3147C245.322 59.1313 247.219 56.4219 249.59 54.1867C251.96 51.9515 254.771 50.2243 258.022 49.0051C261.274 47.7859 264.728 47.1763 268.386 47.1763C272.043 47.1763 275.498 47.7859 278.749 49.0051C282 50.2243 284.811 51.9515 287.182 54.1867C289.552 56.4219 291.415 59.1313 292.77 62.3147C294.192 65.4305 294.903 68.9187 294.903 72.7795C294.903 76.6403 294.192 80.1625 292.77 83.3459C291.415 86.5294 289.552 89.2726 287.182 91.5756C284.811 93.8108 282 95.5718 278.749 96.8587C275.498 98.1457 272.043 98.7892 268.386 98.7892C264.728 98.7892 261.274 98.1457 258.022 96.8587C254.771 95.5718 251.96 93.8108 249.59 91.5756C247.219 89.2726 245.322 86.5294 243.9 83.3459C242.545 80.1625 241.868 76.6403 241.868 72.7795ZM254.263 72.7795C254.263 74.6761 254.534 76.5726 255.076 78.4692C255.686 80.3657 256.566 82.059 257.718 83.5492C258.869 85.0393 260.325 86.2585 262.086 87.2068C263.848 88.155 265.947 88.6292 268.386 88.6292C270.824 88.6292 272.924 88.155 274.685 87.2068C276.446 86.2585 277.902 85.0393 279.054 83.5492C280.205 82.059 281.052 80.3657 281.594 78.4692C282.203 76.5726 282.508 74.6761 282.508 72.7795C282.508 70.883 282.203 69.0203 281.594 67.1915C281.052 65.295 280.205 63.6017 279.054 62.1115C277.902 60.6214 276.446 59.4361 274.685 58.5555C272.924 57.6073 270.824 57.1331 268.386 57.1331C265.947 57.1331 263.848 57.6073 262.086 58.5555C260.325 59.4361 258.869 60.6214 257.718 62.1115C256.566 63.6017 255.686 65.295 255.076 67.1915C254.534 69.0203 254.263 70.883 254.263 72.7795Z" fill="black"/>
<path d="M303.88 72.7795C303.88 68.9187 304.557 65.4305 305.912 62.3147C307.334 59.1313 309.231 56.4219 311.601 54.1867C313.972 51.9515 316.783 50.2243 320.034 49.0051C323.285 47.7859 326.74 47.1763 330.397 47.1763C334.055 47.1763 337.509 47.7859 340.761 49.0051C344.012 50.2243 346.823 51.9515 349.193 54.1867C351.564 56.4219 353.427 59.1313 354.781 62.3147C356.204 65.4305 356.915 68.9187 356.915 72.7795C356.915 76.6403 356.204 80.1625 354.781 83.3459C353.427 86.5294 351.564 89.2726 349.193 91.5756C346.823 93.8108 344.012 95.5718 340.761 96.8587C337.509 98.1457 334.055 98.7892 330.397 98.7892C326.74 98.7892 323.285 98.1457 320.034 96.8587C316.783 95.5718 313.972 93.8108 311.601 91.5756C309.231 89.2726 307.334 86.5294 305.912 83.3459C304.557 80.1625 303.88 76.6403 303.88 72.7795ZM316.275 72.7795C316.275 74.6761 316.546 76.5726 317.088 78.4692C317.697 80.3657 318.578 82.059 319.729 83.5492C320.881 85.0393 322.337 86.2585 324.098 87.2068C325.859 88.155 327.959 88.6292 330.397 88.6292C332.836 88.6292 334.936 88.155 336.697 87.2068C338.458 86.2585 339.914 85.0393 341.065 83.5492C342.217 82.059 343.064 80.3657 343.605 78.4692C344.215 76.5726 344.52 74.6761 344.52 72.7795C344.52 70.883 344.215 69.0203 343.605 67.1915C343.064 65.295 342.217 63.6017 341.065 62.1115C339.914 60.6214 338.458 59.4361 336.697 58.5555C334.936 57.6073 332.836 57.1331 330.397 57.1331C327.959 57.1331 325.859 57.6073 324.098 58.5555C322.337 59.4361 320.881 60.6214 319.729 62.1115C318.578 63.6017 317.697 65.295 317.088 67.1915C316.546 69.0203 316.275 70.883 316.275 72.7795Z" fill="black"/>
<path d="M368.736 48.5987H380.319V56.4219H380.522C381.606 53.9835 383.468 51.8499 386.11 50.0211C388.819 48.1246 392.003 47.1763 395.66 47.1763C398.844 47.1763 401.553 47.7521 403.788 48.9035C406.091 49.9873 407.954 51.4435 409.376 53.2723C410.866 55.1011 411.95 57.2009 412.627 59.5715C413.305 61.9422 413.643 64.3806 413.643 66.8867V97.3668H401.451V70.3412C401.451 68.9188 401.35 67.4286 401.147 65.8707C400.943 64.3129 400.503 62.9244 399.826 61.7051C399.149 60.4182 398.2 59.3683 396.981 58.5555C395.83 57.7427 394.272 57.3363 392.307 57.3363C390.343 57.3363 388.65 57.7427 387.227 58.5555C385.805 59.3006 384.62 60.2827 383.671 61.5019C382.791 62.7211 382.114 64.1435 381.639 65.7691C381.165 67.327 380.928 68.9187 380.928 70.5443V97.3668H368.736V48.5987Z" fill="black"/>
<path d="M428.074 20.5571H440.266V69.1219H440.571L459.062 48.5987H474.708L453.575 70.6459L476.029 97.3668H459.875L440.571 72.3731H440.266V97.3668H428.074V20.5571Z" fill="black"/>
<path d="M483.239 48.5987H495.431V97.3668H483.239V48.5987ZM481.512 32.0379C481.512 30.0737 482.223 28.3803 483.646 26.9579C485.136 25.4678 486.999 24.7227 489.234 24.7227C491.469 24.7227 493.332 25.4339 494.822 26.8563C496.38 28.211 497.159 29.9382 497.159 32.0379C497.159 34.1377 496.38 35.8987 494.822 37.3211C493.332 38.6758 491.469 39.3531 489.234 39.3531C486.999 39.3531 485.136 38.6419 483.646 37.2195C482.223 35.7294 481.512 34.0022 481.512 32.0379Z" fill="black"/>
</svg>
